<svg width="38" height="38" viewBox="0 0 38 38" fill="none" xmlns="http://www.w3.org/2000/svg">
<path d="M18.6182 4C10.1263 4 3.23438 10.892 3.23438 19.3839C3.23438 27.8757 10.1263 34.7677 18.6182 34.7677C27.1101 34.7677 34.0021 27.8757 34.0021 19.3839C34.0021 10.892 27.1101 4 18.6182 4ZM25.7563 14.461C25.5256 16.8917 24.5256 22.7991 24.018 25.522C23.8026 26.6758 23.3718 27.0604 22.9719 27.1066C22.0796 27.1835 21.4027 26.522 20.5412 25.9528C19.1874 25.0605 18.4182 24.5067 17.1106 23.6452C15.5876 22.6452 16.5722 22.0914 17.4491 21.1992C17.6798 20.9684 21.6181 17.384 21.695 17.0609C21.7057 17.012 21.7043 16.9612 21.6909 16.9129C21.6775 16.8646 21.6525 16.8204 21.6181 16.784C21.5258 16.7071 21.4027 16.7378 21.295 16.7532C21.1566 16.784 19.0028 18.2147 14.803 21.0453C14.1877 21.4607 13.6339 21.676 13.1416 21.6607C12.5878 21.6453 11.5417 21.353 10.7571 21.0915C9.7879 20.7838 9.03409 20.6146 9.09562 20.0761C9.12639 19.7992 9.51099 19.5223 10.234 19.23C14.7261 17.2763 17.7106 15.984 19.2028 15.3687C23.4795 13.5841 24.3564 13.2765 24.941 13.2765C25.0641 13.2765 25.3564 13.3072 25.541 13.4611C25.6948 13.5841 25.741 13.7534 25.7563 13.8764C25.741 13.9687 25.7717 14.2456 25.7563 14.461Z" fill="#222424"/>
</svg>
