<svg width="38" height="38" viewBox="0 0 38 38" fill="none" xmlns="http://www.w3.org/2000/svg">
<path d="M20.2787 4C22.0094 4.00462 22.8878 4.01385 23.6462 4.03538L23.9447 4.04615C24.2893 4.05846 24.6292 4.07384 25.04 4.0923C26.6768 4.16922 27.7937 4.42767 28.7737 4.80765C29.789 5.1984 30.6443 5.72761 31.4997 6.58141C32.2822 7.35019 32.8876 8.28051 33.2734 9.30743C33.6534 10.2874 33.9119 11.4042 33.9888 13.0426C34.0072 13.4518 34.0226 13.7918 34.0349 14.138L34.0442 14.4364C34.0672 15.1933 34.0765 16.0717 34.0795 17.8024L34.0811 18.95V20.9653C34.0848 22.0874 34.073 23.2095 34.0457 24.3313L34.0365 24.6297C34.0242 24.9759 34.0088 25.3159 33.9903 25.7251C33.9134 27.3635 33.6519 28.4788 33.2734 29.4603C32.8876 30.4872 32.2822 31.4175 31.4997 32.1863C30.7309 32.9689 29.8006 33.5742 28.7737 33.9601C27.7937 34.34 26.6768 34.5985 25.04 34.6754L23.9447 34.7216L23.6462 34.7308C22.8878 34.7523 22.0094 34.7631 20.2787 34.7662L19.1311 34.7677H17.1173C15.9947 34.7717 14.8721 34.7599 13.7498 34.7323L13.4513 34.7231C13.0861 34.7093 12.721 34.6934 12.356 34.6754C10.7192 34.5985 9.60229 34.34 8.6208 33.9601C7.59444 33.574 6.66466 32.9687 5.89632 32.1863C5.1132 31.4177 4.50733 30.4873 4.12103 29.4603C3.74105 28.4803 3.4826 27.3635 3.40568 25.7251L3.35953 24.6297L3.35183 24.3313C3.32348 23.2095 3.31066 22.0874 3.31338 20.9653V17.8024C3.30912 16.6803 3.3204 15.5582 3.34722 14.4364L3.35799 14.138C3.3703 13.7918 3.38568 13.4518 3.40414 13.0426C3.48106 11.4042 3.73951 10.2889 4.11949 9.30743C4.50669 8.28009 5.11363 7.34974 5.89786 6.58141C6.66575 5.79922 7.59499 5.1939 8.6208 4.80765C9.60229 4.42767 10.7176 4.16922 12.356 4.0923C12.7652 4.07384 13.1067 4.05846 13.4513 4.04615L13.7498 4.03692C14.8716 4.00959 15.9937 3.99779 17.1158 4.00154L20.2787 4ZM18.6972 11.6919C16.6572 11.6919 14.7007 12.5023 13.2582 13.9448C11.8157 15.3874 11.0053 17.3438 11.0053 19.3839C11.0053 21.4239 11.8157 23.3804 13.2582 24.8229C14.7007 26.2654 16.6572 27.0758 18.6972 27.0758C20.7373 27.0758 22.6937 26.2654 24.1362 24.8229C25.5788 23.3804 26.3892 21.4239 26.3892 19.3839C26.3892 17.3438 25.5788 15.3874 24.1362 13.9448C22.6937 12.5023 20.7373 11.6919 18.6972 11.6919ZM18.6972 14.7687C19.3033 14.7686 19.9035 14.8879 20.4634 15.1197C21.0234 15.3516 21.5322 15.6914 21.9609 16.1199C22.3895 16.5484 22.7295 17.0571 22.9616 17.617C23.1936 18.1769 23.3131 18.777 23.3132 19.3831C23.3133 19.9892 23.194 20.5893 22.9621 21.1493C22.7303 21.7093 22.3904 22.2181 21.962 22.6467C21.5335 23.0753 21.0247 23.4154 20.4649 23.6474C19.905 23.8794 19.3048 23.9989 18.6988 23.999C17.4748 23.999 16.3009 23.5128 15.4354 22.6473C14.5698 21.7818 14.0836 20.6079 14.0836 19.3839C14.0836 18.1598 14.5698 16.986 15.4354 16.1204C16.3009 15.2549 17.4748 14.7687 18.6988 14.7687M26.7753 9.38435C26.2653 9.38435 25.7762 9.58695 25.4155 9.94758C25.0549 10.3082 24.8523 10.7973 24.8523 11.3073C24.8523 11.8173 25.0549 12.3065 25.4155 12.6671C25.7762 13.0277 26.2653 13.2303 26.7753 13.2303C27.2853 13.2303 27.7744 13.0277 28.135 12.6671C28.4957 12.3065 28.6983 11.8173 28.6983 11.3073C28.6983 10.7973 28.4957 10.3082 28.135 9.94758C27.7744 9.58695 27.2853 9.38435 26.7753 9.38435Z" fill="#222424"/>
</svg>
