<svg width="38" height="37" viewBox="0 0 38 37" fill="none" xmlns="http://www.w3.org/2000/svg">
<g clip-path="url(#clip0_155_261)">
<path d="M34.9552 18.5797C34.8063 18.2833 34.8063 17.9434 34.9552 17.6471L36.3352 14.9004C37.1035 13.371 36.4947 11.5482 34.9493 10.7504L32.1736 9.31741C31.8741 9.16286 31.6688 8.8878 31.6102 8.56303L31.0673 5.55163C30.765 3.87497 29.171 2.74829 27.439 2.98672L24.3278 3.41492C23.992 3.46104 23.6599 3.356 23.4163 3.12671L21.158 1.00103C19.9005 -0.182601 17.9305 -0.182671 16.6731 1.00103L14.4147 3.12692C14.171 3.35628 13.8389 3.46111 13.5032 3.41513L10.392 2.98693C8.65941 2.74836 7.06596 3.87518 6.76368 5.55184L6.22082 8.5631C6.16221 8.88794 5.95691 9.16293 5.65751 9.31755L2.88181 10.7505C1.33634 11.5483 0.727581 13.3713 1.4959 14.9006L2.87581 17.6473C3.02468 17.9436 3.02468 18.2835 2.87581 18.5798L1.49583 21.3265C0.727509 22.8559 1.33627 24.6787 2.88173 25.4765L5.65744 26.9095C5.95691 27.064 6.16221 27.3391 6.22082 27.6639L6.76368 30.6753C7.03886 32.2016 8.38401 33.272 9.92998 33.2719C10.0822 33.2719 10.2367 33.2615 10.392 33.2401L13.5033 32.8119C13.8388 32.7656 14.1711 32.8708 14.4148 33.1001L16.6731 35.2258C17.302 35.8177 18.1086 36.1136 18.9155 36.1135C19.7222 36.1134 20.5293 35.8175 21.1579 35.2258L23.4163 33.1001C23.66 32.8708 23.9921 32.7661 24.3278 32.8119L27.439 33.2401C29.1718 33.4786 30.765 32.3519 31.0673 30.6752L31.6103 27.6639C31.6689 27.3391 31.8742 27.0641 32.1736 26.9095L34.9493 25.4765C36.4947 24.6788 37.1035 22.8558 36.3352 21.3264L34.9552 18.5797ZM14.6474 8.76996C16.8047 8.76996 18.5598 10.4776 18.5598 12.5766C18.5598 14.6755 16.8047 16.3832 14.6474 16.3832C12.4902 16.3832 10.7351 14.6755 10.7351 12.5766C10.7351 10.4776 12.4902 8.76996 14.6474 8.76996ZM12.6281 25.699C12.4197 25.9017 12.1466 26.0031 11.8736 26.0031C11.6006 26.0031 11.3274 25.9018 11.1192 25.699C10.7025 25.2936 10.7025 24.6362 11.1192 24.2308L25.2029 10.5278C25.6195 10.1223 26.2952 10.1223 26.7118 10.5278C27.1285 10.9332 27.1285 11.5905 26.7118 11.9959L12.6281 25.699ZM23.1834 27.4569C21.0262 27.4569 19.271 25.7493 19.271 23.6503C19.271 21.5514 21.0262 19.8437 23.1834 19.8437C25.3407 19.8437 27.0958 21.5514 27.0958 23.6503C27.0958 25.7493 25.3407 27.4569 23.1834 27.4569Z" fill="#363636"/>
<path d="M34.9552 18.5797C34.8063 18.2833 34.8063 17.9434 34.9552 17.6471L36.3352 14.9004C37.1035 13.371 36.4947 11.5482 34.9493 10.7504L32.1736 9.31741C31.8741 9.16286 31.6688 8.8878 31.6102 8.56303L31.0673 5.55163C30.765 3.87497 29.171 2.74829 27.439 2.98672L24.3278 3.41492C23.992 3.46104 23.6599 3.356 23.4163 3.12671L21.158 1.00103C19.9005 -0.182601 17.9305 -0.182671 16.6731 1.00103L14.4147 3.12692C14.171 3.35628 13.8389 3.46111 13.5032 3.41513L10.392 2.98693C8.65941 2.74836 7.06596 3.87518 6.76368 5.55184L6.22082 8.5631C6.16221 8.88794 5.95691 9.16293 5.65751 9.31755L2.88181 10.7505C1.33634 11.5483 0.727581 13.3713 1.4959 14.9006L2.87581 17.6473C3.02468 17.9436 3.02468 18.2835 2.87581 18.5798L1.49583 21.3265C0.727509 22.8559 1.33627 24.6787 2.88173 25.4765L5.65744 26.9095C5.95691 27.064 6.16221 27.3391 6.22082 27.6639L6.76368 30.6753C7.03886 32.2016 8.38401 33.272 9.92998 33.2719C10.0822 33.2719 10.2367 33.2615 10.392 33.2401L13.5033 32.8119C13.8388 32.7656 14.1711 32.8708 14.4148 33.1001L16.6731 35.2258C17.302 35.8177 18.1086 36.1136 18.9155 36.1135C19.7222 36.1134 20.5293 35.8175 21.1579 35.2258L23.4163 33.1001C23.66 32.8708 23.9921 32.7661 24.3278 32.8119L27.439 33.2401C29.1718 33.4786 30.765 32.3519 31.0673 30.6752L31.6103 27.6639C31.6689 27.3391 31.8742 27.0641 32.1736 26.9095L34.9493 25.4765C36.4947 24.6788 37.1035 22.8558 36.3352 21.3264L34.9552 18.5797ZM14.6474 8.76996C16.8047 8.76996 18.5598 10.4776 18.5598 12.5766C18.5598 14.6755 16.8047 16.3832 14.6474 16.3832C12.4902 16.3832 10.7351 14.6755 10.7351 12.5766C10.7351 10.4776 12.4902 8.76996 14.6474 8.76996ZM12.6281 25.699C12.4197 25.9017 12.1466 26.0031 11.8736 26.0031C11.6006 26.0031 11.3274 25.9018 11.1192 25.699C10.7025 25.2936 10.7025 24.6362 11.1192 24.2308L25.2029 10.5278C25.6195 10.1223 26.2952 10.1223 26.7118 10.5278C27.1285 10.9332 27.1285 11.5905 26.7118 11.9959L12.6281 25.699ZM23.1834 27.4569C21.0262 27.4569 19.271 25.7493 19.271 23.6503C19.271 21.5514 21.0262 19.8437 23.1834 19.8437C25.3407 19.8437 27.0958 21.5514 27.0958 23.6503C27.0958 25.7493 25.3407 27.4569 23.1834 27.4569Z" fill="#363636"/>
<path d="M23.1846 21.9219C22.2041 21.9219 21.4062 22.6981 21.4062 23.6521C21.4062 24.6062 22.204 25.3824 23.1846 25.3824C24.1652 25.3824 24.9629 24.6062 24.9629 23.6521C24.9629 22.6981 24.1652 21.9219 23.1846 21.9219Z" fill="#363636"/>
<path d="M23.1846 21.9219C22.2041 21.9219 21.4062 22.6981 21.4062 23.6521C21.4062 24.6062 22.204 25.3824 23.1846 25.3824C24.1652 25.3824 24.9629 24.6062 24.9629 23.6521C24.9629 22.6981 24.1652 21.9219 23.1846 21.9219Z" fill="#363636"/>
<path d="M14.6455 10.8438C13.6649 10.8438 12.8672 11.6199 12.8672 12.574C12.8672 13.5281 13.6649 14.3043 14.6455 14.3043C15.6261 14.3043 16.4239 13.5281 16.4239 12.574C16.4238 11.62 15.6261 10.8438 14.6455 10.8438Z" fill="#363636"/>
<path d="M14.6455 10.8438C13.6649 10.8438 12.8672 11.6199 12.8672 12.574C12.8672 13.5281 13.6649 14.3043 14.6455 14.3043C15.6261 14.3043 16.4239 13.5281 16.4239 12.574C16.4238 11.62 15.6261 10.8438 14.6455 10.8438Z" fill="#363636"/>
</g>
<defs>
<clipPath id="clip0_155_261">
<rect width="37" height="36" fill="white" transform="translate(0.414062 0.113281)"/>
</clipPath>
</defs>
</svg>
