<svg width="34" height="33" viewBox="0 0 34 33" fill="none" xmlns="http://www.w3.org/2000/svg">
<path d="M32.326 10.322L28.957 8.36735L28.1979 5.32048C27.8609 3.96916 26.5702 3.06829 25.1549 3.17629L21.3 3.4656L19.0917 1.5696C18.0041 0.669664 16.4217 0.669664 15.3303 1.56866L13.1219 3.46554L9.26698 3.17623C7.86777 3.08104 6.56014 3.96998 6.25895 5.2096C6.19662 5.39748 5.07082 8.79091 5.14391 8.57048L2.09644 10.321C0.875697 11.0479 0.386627 12.5072 0.933254 13.7909L2.24842 16.8817L0.934221 19.9716C0.386627 21.2561 0.876599 22.7145 2.09644 23.4405L5.46205 25.3815L6.22395 28.4421C6.55911 29.7925 7.84411 30.6888 9.26691 30.5863L13.0803 30.3007L15.3301 32.2189C15.875 32.6693 16.5425 32.8945 17.211 32.8945C17.8784 32.8945 18.5469 32.6693 19.0917 32.2189L21.3416 30.3006L25.1549 30.5862C26.5957 30.697 27.8627 29.7934 28.1979 28.442L28.957 25.3952L32.326 23.4405C33.5449 22.7145 34.0339 21.2561 33.4882 19.9716L32.173 16.8817L33.4892 13.79C34.0349 12.5074 33.5458 11.048 32.326 10.322ZM17.211 27.207C11.3469 27.207 6.57619 22.5809 6.57619 16.8945C6.57619 11.2082 11.3469 6.58204 17.211 6.58204C23.075 6.58204 27.8457 11.2082 27.8457 16.8945C27.8457 22.5809 23.075 27.207 17.211 27.207Z" fill="white"/>
<path d="M17.2129 8.45703C12.4148 8.45703 8.51172 12.2418 8.51172 16.8945C8.51172 21.5472 12.4148 25.332 17.2129 25.332C22.011 25.332 25.9141 21.5472 25.9141 16.8945C25.9141 12.2418 22.011 8.45703 17.2129 8.45703ZM22.7304 14.7448L16.9296 20.3698C16.7408 20.553 16.4934 20.6445 16.2461 20.6445C15.9988 20.6445 15.7514 20.553 15.5626 20.3698L11.6954 16.6198C11.3178 16.2537 11.3178 15.6603 11.6954 15.2942C12.073 14.928 12.6849 14.928 13.0625 15.2942L16.2461 18.3813L21.3633 13.4192C21.741 13.053 22.3528 13.053 22.7305 13.4192C23.1081 13.7853 23.1081 14.3787 22.7304 14.7448Z" fill="white"/>
</svg>
