<svg width="36" height="36" viewBox="0 0 36 36" fill="none" xmlns="http://www.w3.org/2000/svg">
<path d="M34.8357 1.19214C34.4389 0.795328 33.7958 0.795328 33.3989 1.19214L23.1529 11.4382C22.7563 11.8348 22.7563 12.4781 23.1529 12.8749C23.5497 13.2715 24.1931 13.2715 24.5897 12.8749L34.8357 2.62892C35.2325 2.23211 35.2325 1.58874 34.8357 1.19214Z" fill="white"/>
<path d="M33.2981 17.5777L31.7682 8.62331L28.0979 12.2941C28.0994 13.4155 27.6736 14.5374 26.8198 15.3911C25.1155 17.0952 22.3427 17.0952 20.6382 15.3911C18.9342 13.6871 18.9342 10.9142 20.6382 9.20974C21.4924 8.3558 22.6149 7.92957 23.7367 7.93169L27.4073 4.26133L18.4518 2.73143C17.4671 2.56318 16.4576 2.88423 15.7512 3.59088L2.15755 17.1843C-0.1046 19.4467 -0.1046 23.1276 2.15755 25.39L10.6396 33.8718C12.902 36.1342 16.5829 36.1342 18.8453 33.8718L32.4387 20.2782C33.1449 19.5722 33.4664 18.5622 33.2981 17.5777Z" fill="white"/>
</svg>
