<svg width="36" height="36" viewBox="0 0 36 36" fill="none" xmlns="http://www.w3.org/2000/svg">
<path d="M27.2452 18.9098H29.2822C29.0805 17.0936 28.3611 15.4316 27.2751 14.0748L25.8378 15.5121L24.356 14.0303L25.7933 12.593C24.4366 11.507 22.7746 10.7876 20.9584 10.5859V12.623H18.8628V10.5859C17.0467 10.7876 15.3847 11.507 14.0279 12.593L15.4652 14.0303L13.9834 15.5121L12.5461 14.0747C11.4601 15.4316 10.7407 17.0936 10.5391 18.9097H12.5761V21.0053H10.5391C10.7407 22.8214 11.4601 24.4835 12.5461 25.8402L13.9834 24.4029L15.4652 25.8846L14.0279 27.322C15.3847 28.408 17.0467 29.1274 18.8629 29.3291V27.2921H20.9585V29.3292C22.7746 29.1274 24.4366 28.4081 25.7934 27.3221L24.3561 25.8847L25.838 24.4029L27.2752 25.8403C28.3612 24.4835 29.0805 22.8215 29.2822 21.0053H27.2452V18.9098ZM23.054 21.0053H18.8628V14.7186H20.9584V18.9098H23.054V21.0053Z" fill="white"/>
<path d="M20.9559 4.27326V2.14246H24.0993V0.046875H15.7169V2.14246H18.8603V4.27326C14.2137 4.57712 10.068 6.89176 7.33197 10.5248H3.14338V12.6204H5.99974C5.64244 13.296 5.33586 13.996 5.08208 14.716H2.09559V16.8116H4.50426C4.36553 17.4986 4.2727 18.1984 4.22638 18.9072H0V21.0028H4.22638C4.75664 29.1123 11.4912 35.6719 19.9081 35.6719C40.186 34.9406 40.9572 6.25631 20.9559 4.27326ZM19.9081 31.4807C13.5528 31.4807 8.38235 26.3103 8.38235 19.955C9.01543 4.6645 30.8031 4.66897 31.4338 19.955C31.4338 26.3103 26.2634 31.4807 19.9081 31.4807Z" fill="white"/>
</svg>
