<svg width="38" height="38" viewBox="0 0 38 38" fill="none" xmlns="http://www.w3.org/2000/svg">
<path d="M20.4154 3.34033C22.1461 3.34495 23.0245 3.35418 23.7829 3.37571L24.0814 3.38648C24.426 3.39879 24.766 3.41417 25.1767 3.43264C26.8136 3.50955 27.9304 3.768 28.9104 4.14798C29.9257 4.53873 30.781 5.06794 31.6364 5.92174C32.419 6.69052 33.0243 7.62085 33.4101 8.64776C33.7901 9.62771 34.0486 10.7446 34.1255 12.383C34.144 12.7922 34.1593 13.1322 34.1716 13.4783L34.1809 13.7767C34.204 14.5336 34.2132 15.412 34.2163 17.1427L34.2178 18.2904V20.3056C34.2215 21.4278 34.2097 22.5499 34.1824 23.6716L34.1732 23.9701C34.1609 24.3162 34.1455 24.6562 34.127 25.0654C34.0501 26.7038 33.7886 27.8191 33.4101 28.8006C33.0243 29.8275 32.419 30.7578 31.6364 31.5266C30.8676 32.3092 29.9373 32.9145 28.9104 33.3004C27.9304 33.6804 26.8136 33.9388 25.1767 34.0157L24.0814 34.0619L23.7829 34.0711C23.0245 34.0927 22.1461 34.1034 20.4154 34.1065L19.2678 34.108H17.254C16.1314 34.112 15.0088 34.1002 13.8865 34.0727L13.5881 34.0634C13.2229 34.0496 12.8577 34.0337 12.4927 34.0157C10.8559 33.9388 9.73901 33.6804 8.75752 33.3004C7.73116 32.9143 6.80138 32.309 6.03304 31.5266C5.24992 30.758 4.64405 29.8277 4.25775 28.8006C3.87777 27.8207 3.61932 26.7038 3.5424 25.0654L3.49625 23.9701L3.48855 23.6716C3.4602 22.5499 3.44737 21.4278 3.45009 20.3056V17.1427C3.44584 16.0206 3.45712 14.8985 3.48394 13.7767L3.49471 13.4783C3.50701 13.1322 3.5224 12.7922 3.54086 12.383C3.61778 10.7446 3.87623 9.62925 4.25621 8.64776C4.64341 7.62043 5.25035 6.69007 6.03458 5.92174C6.80247 5.13955 7.73171 4.53423 8.75752 4.14798C9.73901 3.768 10.8543 3.50955 12.4927 3.43264C12.9019 3.41417 13.2435 3.39879 13.5881 3.38648L13.8865 3.37725C15.0083 3.34992 16.1304 3.33812 17.2525 3.34187L20.4154 3.34033ZM18.8339 11.0323C16.7939 11.0323 14.8375 11.8427 13.3949 13.2852C11.9524 14.7277 11.142 16.6842 11.142 18.7242C11.142 20.7642 11.9524 22.7207 13.3949 24.1632C14.8375 25.6057 16.7939 26.4161 18.8339 26.4161C20.874 26.4161 22.8304 25.6057 24.273 24.1632C25.7155 22.7207 26.5259 20.7642 26.5259 18.7242C26.5259 16.6842 25.7155 14.7277 24.273 13.2852C22.8304 11.8427 20.874 11.0323 18.8339 11.0323ZM18.8339 14.109C19.44 14.1089 20.0402 14.2282 20.6001 14.46C21.1601 14.6919 21.669 15.0317 22.0976 15.4602C22.5262 15.8887 22.8662 16.3974 23.0983 16.9573C23.3303 17.5172 23.4498 18.1173 23.4499 18.7234C23.45 19.3295 23.3307 19.9296 23.0989 20.4896C22.867 21.0496 22.5272 21.5584 22.0987 21.9871C21.6702 22.4157 21.1615 22.7557 20.6016 22.9877C20.0417 23.2198 19.4416 23.3392 18.8355 23.3393C17.6115 23.3393 16.4376 22.8531 15.5721 21.9876C14.7066 21.1221 14.2203 19.9482 14.2203 18.7242C14.2203 17.5002 14.7066 16.3263 15.5721 15.4608C16.4376 14.5953 17.6115 14.109 18.8355 14.109M26.912 8.72468C26.402 8.72468 25.9129 8.92728 25.5523 9.28791C25.1916 9.64854 24.989 10.1377 24.989 10.6477C24.989 11.1577 25.1916 11.6468 25.5523 12.0074C25.9129 12.368 26.402 12.5706 26.912 12.5706C27.422 12.5706 27.9111 12.368 28.2718 12.0074C28.6324 11.6468 28.835 11.1577 28.835 10.6477C28.835 10.1377 28.6324 9.64854 28.2718 9.28791C27.9111 8.92728 27.422 8.72468 26.912 8.72468Z" fill="white"/>
</svg>
