<svg width="38" height="38" viewBox="0 0 38 38" fill="none" xmlns="http://www.w3.org/2000/svg">
<path d="M19.4056 3.34033C10.9137 3.34033 4.02173 10.2323 4.02173 18.7242C4.02173 27.2161 10.9137 34.108 19.4056 34.108C27.8975 34.108 34.7894 27.2161 34.7894 18.7242C34.7894 10.2323 27.8975 3.34033 19.4056 3.34033ZM26.5437 13.8014C26.3129 16.232 25.313 22.1394 24.8053 24.8623C24.5899 26.0161 24.1592 26.4007 23.7592 26.4469C22.8669 26.5238 22.1901 25.8623 21.3286 25.2931C19.9748 24.4008 19.2056 23.847 17.898 22.9855C16.375 21.9856 17.3595 21.4317 18.2364 20.5395C18.4672 20.3087 22.4054 16.7243 22.4824 16.4012C22.493 16.3523 22.4916 16.3015 22.4782 16.2532C22.4648 16.205 22.4398 16.1607 22.4054 16.1243C22.3131 16.0474 22.1901 16.0782 22.0824 16.0935C21.9439 16.1243 19.7902 17.555 15.5904 20.3856C14.975 20.801 14.4212 21.0164 13.9289 21.001C13.3751 20.9856 12.329 20.6933 11.5444 20.4318C10.5753 20.1241 9.82144 19.9549 9.88298 19.4165C9.91374 19.1395 10.2983 18.8626 11.0214 18.5703C15.5135 16.6166 18.4979 15.3244 19.9902 14.709C24.2669 12.9245 25.1438 12.6168 25.7283 12.6168C25.8514 12.6168 26.1437 12.6476 26.3283 12.8014C26.4822 12.9245 26.5283 13.0937 26.5437 13.2168C26.5283 13.3091 26.5591 13.586 26.5437 13.8014Z" fill="white"/>
</svg>
