<svg width="91" height="18" viewBox="0 0 91 18" fill="none" xmlns="http://www.w3.org/2000/svg">
<path d="M8.69393 2.61768L10.3504 6.67778L14.7277 7.00203L11.3725 9.83564L12.4227 14.0931L8.69393 11.7811L4.96511 14.0931L6.01538 9.83564L2.66016 7.00203L7.03746 6.67778L8.69393 2.61768Z" fill="#E2BB44"/>
<path d="M8.69393 2.61768L7.03746 6.67778L2.66016 7.00203L6.01538 9.83564L4.96511 14.0931L8.69393 11.7811M8.69393 2.61768L10.3504 6.67778L14.7277 7.00203L11.3725 9.83564L12.4227 14.0931L8.69393 11.7811" stroke="#E2BB44" stroke-width="2" stroke-linecap="round" stroke-linejoin="round"/>
<path d="M27.0221 2.61768L28.6785 6.67778L33.0558 7.00203L29.7006 9.83564L30.7509 14.0931L27.0221 11.7811L23.2932 14.0931L24.3435 9.83564L20.9883 7.00203L25.3656 6.67778L27.0221 2.61768Z" fill="#E2BB44"/>
<path d="M27.0221 2.61768L25.3656 6.67778L20.9883 7.00203L24.3435 9.83564L23.2932 14.0931L27.0221 11.7811M27.0221 2.61768L28.6785 6.67778L33.0558 7.00203L29.7006 9.83564L30.7509 14.0931L27.0221 11.7811" stroke="#E2BB44" stroke-width="2" stroke-linecap="round" stroke-linejoin="round"/>
<path d="M45.3463 2.61768L47.0027 6.67778L51.38 7.00203L48.0248 9.83564L49.0751 14.0931L45.3463 11.7811L41.6175 14.0931L42.6677 9.83564L39.3125 7.00203L43.6898 6.67778L45.3463 2.61768Z" fill="#E2BB44"/>
<path d="M45.3463 2.61768L43.6898 6.67778L39.3125 7.00203L42.6677 9.83564L41.6175 14.0931L45.3463 11.7811M45.3463 2.61768L47.0027 6.67778L51.38 7.00203L48.0248 9.83564L49.0751 14.0931L45.3463 11.7811" stroke="#E2BB44" stroke-width="2" stroke-linecap="round" stroke-linejoin="round"/>
<path d="M63.6746 2.61768L65.3311 6.67778L69.7084 7.00203L66.3532 9.83564L67.4035 14.0931L63.6746 11.7811L59.9458 14.0931L60.9961 9.83564L57.6409 7.00203L62.0182 6.67778L63.6746 2.61768Z" fill="#E2BB44"/>
<path d="M63.6746 2.61768L62.0182 6.67778L57.6409 7.00203L60.9961 9.83564L59.9458 14.0931L63.6746 11.7811M63.6746 2.61768L65.3311 6.67778L69.7084 7.00203L66.3532 9.83564L67.4035 14.0931L63.6746 11.7811" stroke="#E2BB44" stroke-width="2" stroke-linecap="round" stroke-linejoin="round"/>
<path d="M82.0025 2.61768L83.659 6.67778L88.0363 7.00203L84.6811 9.83564L85.7313 14.0931L82.0025 11.7811L78.2737 14.0931L79.324 9.83564L75.9688 7.00203L80.3461 6.67778L82.0025 2.61768Z" fill="#E2BB44"/>
<path d="M82.0025 2.61768L80.3461 6.67778L75.9688 7.00203L79.324 9.83564L78.2737 14.0931L82.0025 11.7811M82.0025 2.61768L83.659 6.67778L88.0363 7.00203L84.6811 9.83564L85.7313 14.0931L82.0025 11.7811" stroke="#E2BB44" stroke-width="2" stroke-linecap="round" stroke-linejoin="round"/>
</svg>
