<svg width="25" height="24" viewBox="0 0 25 24" fill="none" xmlns="http://www.w3.org/2000/svg">
<path d="M20.6406 17.5C21.0258 17.5002 21.3962 17.6486 21.675 17.9144C21.9538 18.1802 22.1196 18.5431 22.1381 18.9279C22.1567 19.3127 22.0264 19.6898 21.7745 19.9812C21.5225 20.2726 21.168 20.4558 20.7846 20.493L20.6406 20.5H4.64062C4.25541 20.4998 3.88503 20.3514 3.60624 20.0856C3.32745 19.8198 3.16161 19.4569 3.1431 19.0721C3.12459 18.6873 3.25482 18.3102 3.5068 18.0188C3.75878 17.7274 4.11321 17.5442 4.49662 17.507L4.64062 17.5H20.6406ZM20.6406 10.5C21.0385 10.5 21.42 10.658 21.7013 10.9393C21.9826 11.2206 22.1406 11.6022 22.1406 12C22.1406 12.3978 21.9826 12.7794 21.7013 13.0607C21.42 13.342 21.0385 13.5 20.6406 13.5H4.64062C4.2428 13.5 3.86127 13.342 3.57996 13.0607C3.29866 12.7794 3.14062 12.3978 3.14062 12C3.14062 11.6022 3.29866 11.2206 3.57996 10.9393C3.86127 10.658 4.2428 10.5 4.64062 10.5H20.6406ZM20.6406 3.5C21.0385 3.5 21.42 3.65804 21.7013 3.93934C21.9826 4.22064 22.1406 4.60218 22.1406 5C22.1406 5.39782 21.9826 5.77936 21.7013 6.06066C21.42 6.34196 21.0385 6.5 20.6406 6.5H4.64062C4.2428 6.5 3.86127 6.34196 3.57996 6.06066C3.29866 5.77936 3.14062 5.39782 3.14062 5C3.14062 4.60218 3.29866 4.22064 3.57996 3.93934C3.86127 3.65804 4.2428 3.5 4.64062 3.5H20.6406Z" fill="black"/>
</svg>
