<svg width="178" height="178" viewBox="0 0 178 178" fill="none" xmlns="http://www.w3.org/2000/svg">
<path d="M105.843 40.8039C108.159 14.1652 135.95 1.0945 137.126 0.560997C138.225 0.0441537 139.457 -0.120977 140.654 0.0881227C172.737 5.411 177.563 24.0835 177.757 24.8595C178.021 25.9409 177.979 27.0744 177.635 28.1332C139.369 146.861 59.8409 168.868 33.6994 176.107C31.6867 176.665 30.0256 177.113 28.7646 177.525C27.3256 177.996 25.7622 177.905 24.3874 177.271C23.5872 176.907 4.69643 168.007 0.0768094 138.98C-0.128086 137.713 0.0757617 136.413 0.658813 135.27C1.07106 134.47 10.9529 115.664 38.3554 109.019C39.2851 108.781 40.2585 108.773 41.1921 108.995C42.1256 109.217 42.9913 109.662 43.7147 110.292C52.3598 117.676 64.3029 125.546 69.4561 126.358C104 109.468 123.291 77.0576 124.019 70.9102C124.443 67.4546 116.525 55.3175 107.419 45.4477C106.847 44.8266 106.411 44.0925 106.14 43.2927C105.868 42.4929 105.767 41.6451 105.843 40.8039Z" fill="white"/>
</svg>
