<svg width="35" height="35" viewBox="0 0 35 35" fill="none" xmlns="http://www.w3.org/2000/svg">
<path d="M32.1146 10.2656H25.0313V8.14062H29.1396C27.5813 6.77118 25.8458 5.72049 23.9333 4.98854C22.0208 4.2566 20.0257 3.89062 17.9479 3.89062C15.8701 3.89062 13.875 4.2566 11.9625 4.98854C10.05 5.72049 8.31458 6.77118 6.75625 8.14062H10.8646V10.2656H3.78125V3.18229H5.90625V6.05104C7.60625 4.65799 9.48333 3.59549 11.5375 2.86354C13.5917 2.1316 15.7285 1.76563 17.9479 1.76562C20.1674 1.76562 22.3042 2.1316 24.3583 2.86354C26.4125 3.59549 28.2896 4.65799 29.9896 6.05104V3.18229H32.1146V10.2656ZM17.7 31.5156C17.1333 31.5156 16.5903 31.4094 16.0708 31.1969C15.5514 30.9844 15.091 30.6774 14.6896 30.276L7.46458 23.0156L8.52708 21.9177C8.90486 21.5399 9.34781 21.2863 9.85592 21.157C10.364 21.0276 10.8655 21.0332 11.3604 21.174L13.6979 21.8469V10.2656C13.6979 9.86424 13.8339 9.52801 14.1059 9.25696C14.3779 8.9859 14.7141 8.8499 15.1146 8.84896C15.515 8.84801 15.8517 8.98401 16.1247 9.25696C16.3976 9.5299 16.5331 9.86613 16.5313 10.2656V20.1823H17.9479V15.9323C17.9479 15.5309 18.0839 15.1947 18.3559 14.9236C18.6279 14.6526 18.9641 14.5166 19.3646 14.5156C19.765 14.5147 20.1017 14.6507 20.3747 14.9236C20.6476 15.1966 20.7831 15.5328 20.7812 15.9323V20.1823H22.1979V17.349C22.1979 16.9476 22.3339 16.6113 22.6059 16.3403C22.8779 16.0692 23.2141 15.9332 23.6146 15.9323C24.015 15.9313 24.3517 16.0673 24.6247 16.3403C24.8976 16.6132 25.0331 16.9495 25.0313 17.349V20.1823H26.4479C26.4479 19.7809 26.5839 19.4447 26.8559 19.1736C27.1279 18.9026 27.4641 18.7666 27.8646 18.7656C28.265 18.7647 28.6017 18.9007 28.8747 19.1736C29.1476 19.4466 29.2831 19.7828 29.2813 20.1823V25.849C29.2813 27.4073 28.7264 28.7413 27.6167 29.851C26.5069 30.9608 25.1729 31.5156 23.6146 31.5156H17.7Z" fill="black"/>
</svg>
