<svg width="91" height="18" viewBox="0 0 91 18" fill="none" xmlns="http://www.w3.org/2000/svg">
<path d="M8.97518 2.61719L10.6316 6.6773L15.0089 7.00154L11.6537 9.83516L12.704 14.0926L8.97518 11.7806L5.24636 14.0926L6.29663 9.83516L2.94141 7.00154L7.31871 6.6773L8.97518 2.61719Z" fill="#E2BB44"/>
<path d="M8.97518 2.61719L7.31871 6.6773L2.94141 7.00154L6.29663 9.83516L5.24636 14.0926L8.97518 11.7806M8.97518 2.61719L10.6316 6.6773L15.0089 7.00154L11.6537 9.83516L12.704 14.0926L8.97518 11.7806" stroke="#E2BB44" stroke-width="2" stroke-linecap="round" stroke-linejoin="round"/>
<path d="M27.3033 2.61719L28.9598 6.6773L33.3371 7.00154L29.9818 9.83516L31.0321 14.0926L27.3033 11.7806L23.5745 14.0926L24.6248 9.83516L21.2695 7.00154L25.6468 6.6773L27.3033 2.61719Z" fill="#E2BB44"/>
<path d="M27.3033 2.61719L25.6468 6.6773L21.2695 7.00154L24.6248 9.83516L23.5745 14.0926L27.3033 11.7806M27.3033 2.61719L28.9598 6.6773L33.3371 7.00154L29.9818 9.83516L31.0321 14.0926L27.3033 11.7806" stroke="#E2BB44" stroke-width="2" stroke-linecap="round" stroke-linejoin="round"/>
<path d="M45.6275 2.61719L47.284 6.6773L51.6613 7.00154L48.3061 9.83516L49.3563 14.0926L45.6275 11.7806L41.8987 14.0926L42.949 9.83516L39.5938 7.00154L43.9711 6.6773L45.6275 2.61719Z" fill="#E2BB44"/>
<path d="M45.6275 2.61719L43.9711 6.6773L39.5938 7.00154L42.949 9.83516L41.8987 14.0926L45.6275 11.7806M45.6275 2.61719L47.284 6.6773L51.6613 7.00154L48.3061 9.83516L49.3563 14.0926L45.6275 11.7806" stroke="#E2BB44" stroke-width="2" stroke-linecap="round" stroke-linejoin="round"/>
<path d="M63.9556 2.61719L65.6121 6.6773L69.9894 7.00154L66.6342 9.83516L67.6845 14.0926L63.9556 11.7806L60.2268 14.0926L61.2771 9.83516L57.9219 7.00154L62.2992 6.6773L63.9556 2.61719Z" fill="#E2BB44"/>
<path d="M63.9556 2.61719L62.2992 6.6773L57.9219 7.00154L61.2771 9.83516L60.2268 14.0926L63.9556 11.7806M63.9556 2.61719L65.6121 6.6773L69.9894 7.00154L66.6342 9.83516L67.6845 14.0926L63.9556 11.7806" stroke="#E2BB44" stroke-width="2" stroke-linecap="round" stroke-linejoin="round"/>
<path d="M82.2838 2.61719L83.9402 6.6773L88.3175 7.00154L84.9623 9.83516L86.0126 14.0926L82.2838 11.7806L78.555 14.0926L79.6052 9.83516L76.25 7.00154L80.6273 6.6773L82.2838 2.61719Z" fill="#D1D1D1"/>
<path d="M82.2838 2.61719L80.6273 6.6773L76.25 7.00154L79.6052 9.83516L78.555 14.0926L82.2838 11.7806M82.2838 2.61719L83.9402 6.6773L88.3175 7.00154L84.9623 9.83516L86.0126 14.0926L82.2838 11.7806" stroke="#D1D1D1" stroke-width="2" stroke-linecap="round" stroke-linejoin="round"/>
</svg>
