<svg width="216" height="20" viewBox="0 0 216 20" fill="none" xmlns="http://www.w3.org/2000/svg">
<path d="M4.9565 16.258V3.81358H8.10276V16.258H4.9565ZM0.307415 11.6089V8.46267H12.7518V11.6089H0.307415ZM21.9411 19.2461C20.6287 19.2461 19.4598 19.0205 18.4345 18.5694C17.4151 18.1124 16.6095 17.4855 16.0177 16.6886C15.4318 15.886 15.1301 14.9602 15.1125 13.9115H18.9443C18.9677 14.3509 19.1112 14.7376 19.3749 15.0716C19.6444 15.3997 20.0018 15.6545 20.4471 15.8362C20.8924 16.0178 21.3933 16.1086 21.9499 16.1086C22.5299 16.1086 23.0426 16.0061 23.4879 15.801C23.9332 15.5959 24.2818 15.3118 24.5337 14.9485C24.7856 14.5853 24.9116 14.1664 24.9116 13.6918C24.9116 13.2114 24.7768 12.7866 24.5073 12.4175C24.2437 12.0425 23.8629 11.7495 23.3648 11.5386C22.8727 11.3277 22.2868 11.2222 21.6072 11.2222H19.9286V8.42751H21.6072C22.1813 8.42751 22.6881 8.32791 23.1276 8.12871C23.5728 7.9295 23.9185 7.65413 24.1646 7.30259C24.4107 6.9452 24.5337 6.52921 24.5337 6.05464C24.5337 5.6035 24.4253 5.20802 24.2085 4.8682C23.9976 4.52252 23.6988 4.25301 23.3121 4.05966C22.9313 3.86632 22.486 3.76964 21.9763 3.76964C21.4607 3.76964 20.989 3.86339 20.5613 4.05087C20.1336 4.2325 19.7909 4.49322 19.5331 4.83304C19.2753 5.17286 19.1376 5.57127 19.12 6.02827H15.4728C15.4904 4.99123 15.7863 4.07724 16.3605 3.28628C16.9346 2.49532 17.708 1.8772 18.6806 1.43192C19.659 0.980779 20.7635 0.755209 21.9938 0.755209C23.2359 0.755209 24.3228 0.980779 25.2544 1.43192C26.1859 1.88306 26.9095 2.49239 27.4251 3.25991C27.9465 4.02158 28.2043 4.87699 28.1985 5.82614C28.2043 6.83388 27.8909 7.67464 27.2581 8.34842C26.6312 9.0222 25.8139 9.4499 24.8061 9.63153V9.77214C26.1303 9.94205 27.138 10.402 27.8294 11.1519C28.5266 11.896 28.8723 12.8276 28.8664 13.9467C28.8723 14.972 28.5764 15.883 27.9788 16.6799C27.387 17.4767 26.5697 18.1036 25.5268 18.5606C24.4839 19.0176 23.2887 19.2461 21.9411 19.2461ZM37.3262 19.2461C35.9728 19.2461 34.7688 19.0264 33.7142 18.5869C32.6654 18.1417 31.8423 17.5353 31.2446 16.7677C30.647 16.0002 30.3482 15.1302 30.3482 14.1576C30.3482 13.4076 30.5181 12.7192 30.8579 12.0923C31.2036 11.4595 31.6723 10.9351 32.2641 10.5192C32.8559 10.0973 33.5179 9.8278 34.2503 9.71062V9.58759C33.2894 9.39424 32.5102 8.92845 31.9126 8.19023C31.3149 7.44614 31.0161 6.58194 31.0161 5.59764C31.0161 4.66606 31.2886 3.83702 31.8335 3.11051C32.3783 2.37814 33.1254 1.80396 34.0745 1.38798C35.0295 0.966132 36.1134 0.755209 37.3262 0.755209C38.539 0.755209 39.62 0.966132 40.5692 1.38798C41.5242 1.80982 42.2741 2.38693 42.819 3.1193C43.3639 3.84581 43.6393 4.67192 43.6451 5.59764C43.6393 6.5878 43.3346 7.452 42.7311 8.19023C42.1276 8.92845 41.3543 9.39424 40.411 9.58759V9.71062C41.1316 9.8278 41.7849 10.0973 42.3708 10.5192C42.9626 10.9351 43.4313 11.4595 43.7769 12.0923C44.1285 12.7192 44.3072 13.4076 44.313 14.1576C44.3072 15.1302 44.0054 16.0002 43.4078 16.7677C42.8102 17.5353 41.9841 18.1417 40.9295 18.5869C39.8807 19.0264 38.6797 19.2461 37.3262 19.2461ZM37.3262 16.4514C37.9297 16.4514 38.457 16.343 38.9082 16.1262C39.3593 15.9035 39.7108 15.5989 39.9628 15.2122C40.2206 14.8196 40.3495 14.3685 40.3495 13.8588C40.3495 13.3373 40.2176 12.8774 39.954 12.479C39.6903 12.0747 39.3329 11.7583 38.8818 11.5298C38.4306 11.2955 37.9121 11.1783 37.3262 11.1783C36.7462 11.1783 36.2277 11.2955 35.7707 11.5298C35.3137 11.7583 34.9534 12.0747 34.6897 12.479C34.4319 12.8774 34.303 13.3373 34.303 13.8588C34.303 14.3685 34.429 14.8196 34.6809 15.2122C34.9329 15.5989 35.2873 15.9035 35.7443 16.1262C36.2013 16.343 36.7286 16.4514 37.3262 16.4514ZM37.3262 8.40994C37.8301 8.40994 38.2783 8.3074 38.6709 8.10234C39.0634 7.89728 39.371 7.61312 39.5937 7.24986C39.8163 6.88661 39.9276 6.46769 39.9276 5.99312C39.9276 5.5244 39.8163 5.11427 39.5937 4.76274C39.371 4.40534 39.0663 4.12704 38.6797 3.92783C38.293 3.72277 37.8418 3.62024 37.3262 3.62024C36.8165 3.62024 36.3654 3.72277 35.9728 3.92783C35.5803 4.12704 35.2727 4.40534 35.05 4.76274C34.8332 5.11427 34.7249 5.5244 34.7249 5.99312C34.7249 6.46769 34.8362 6.88661 35.0588 7.24986C35.2815 7.61312 35.5891 7.89728 35.9816 8.10234C36.3742 8.3074 36.8224 8.40994 37.3262 8.40994ZM57.7789 19.3955C56.2672 19.3896 54.9666 19.0176 53.8768 18.2793C52.7929 17.5411 51.958 16.4719 51.3721 15.0716C50.7921 13.6713 50.505 11.9868 50.5108 10.0182C50.5108 8.05547 50.8008 6.38274 51.3809 5.00002C51.9668 3.61731 52.8017 2.56563 53.8856 1.84498C54.9753 1.11846 56.2731 0.755209 57.7789 0.755209C59.2846 0.755209 60.5794 1.11846 61.6633 1.84498C62.7531 2.57149 63.5909 3.6261 64.1768 5.00881C64.7627 6.38567 65.0528 8.05547 65.0469 10.0182C65.0469 11.9927 64.7539 13.6801 64.168 15.0804C63.588 16.4806 62.756 17.5499 61.6721 18.2881C60.5882 19.0264 59.2905 19.3955 57.7789 19.3955ZM57.7789 16.2404C58.81 16.2404 59.6332 15.7219 60.2484 14.6849C60.8636 13.6478 61.1683 12.0923 61.1624 10.0182C61.1624 8.65308 61.0218 7.51645 60.7406 6.60831C60.4652 5.70017 60.0726 5.0176 59.5629 4.5606C59.059 4.1036 58.4644 3.8751 57.7789 3.8751C56.7535 3.8751 55.9333 4.38776 55.3181 5.41308C54.7029 6.4384 54.3924 7.97344 54.3865 10.0182C54.3865 11.4009 54.5242 12.5551 54.7996 13.4809C55.0808 14.4007 55.4763 15.0921 55.986 15.5549C56.4957 16.0119 57.0934 16.2404 57.7789 16.2404ZM73.2826 0.755209C74.2083 0.755209 75.0989 0.910471 75.9543 1.221C76.8156 1.53152 77.5831 2.0266 78.2569 2.70624C78.9365 3.38588 79.4726 4.28816 79.8652 5.41308C80.2636 6.53214 80.4657 7.90607 80.4716 9.53486C80.4716 11.064 80.2987 12.4292 79.953 13.6303C79.6132 14.8255 79.124 15.842 78.4854 16.6799C77.8467 17.5177 77.0763 18.1563 76.174 18.5957C75.2717 19.0293 74.264 19.2461 73.1508 19.2461C71.9497 19.2461 70.8892 19.0146 69.9694 18.5518C69.0495 18.0831 68.3084 17.4474 67.7459 16.6447C67.1893 15.8362 66.8524 14.928 66.7352 13.9203H70.4879C70.6344 14.5765 70.942 15.0862 71.4107 15.4495C71.8794 15.8069 72.4594 15.9856 73.1508 15.9856C74.3226 15.9856 75.2131 15.4758 75.8225 14.4564C76.4318 13.4311 76.7394 12.0278 76.7453 10.2467H76.6222C76.3527 10.774 75.9895 11.2281 75.5325 11.6089C75.0755 11.9839 74.5511 12.2739 73.9593 12.479C73.3734 12.684 72.7495 12.7866 72.0874 12.7866C71.0269 12.7866 70.0807 12.5376 69.2487 12.0396C68.4168 11.5415 67.7606 10.8561 67.2801 9.98307C66.7997 9.11008 66.5595 8.11406 66.5595 6.995C66.5536 5.78805 66.8319 4.71293 67.3944 3.76964C67.9568 2.82635 68.7419 2.08812 69.7497 1.55496C70.7633 1.01593 71.9409 0.74935 73.2826 0.755209ZM73.309 3.74328C72.7172 3.74328 72.1899 3.88389 71.7271 4.16512C71.2701 4.44635 70.9068 4.82425 70.6373 5.29883C70.3736 5.7734 70.2447 6.30364 70.2506 6.88954C70.2506 7.48129 70.3795 8.01446 70.6373 8.48903C70.901 8.95775 71.2583 9.33272 71.7095 9.61395C72.1665 9.88932 72.6879 10.027 73.2738 10.027C73.7133 10.027 74.1204 9.94498 74.4954 9.78093C74.8704 9.61688 75.1956 9.39131 75.4709 9.10422C75.7522 8.81127 75.9719 8.47438 76.1301 8.09355C76.2883 7.71272 76.3674 7.30845 76.3674 6.88075C76.3615 6.31243 76.2267 5.79098 75.9631 5.31641C75.6994 4.84183 75.3362 4.461 74.8733 4.17391C74.4105 3.88682 73.889 3.74328 73.309 3.74328ZM88.8325 19.2461C87.4791 19.2461 86.2751 19.0264 85.2205 18.5869C84.1717 18.1417 83.3485 17.5353 82.7509 16.7677C82.1533 16.0002 81.8545 15.1302 81.8545 14.1576C81.8545 13.4076 82.0244 12.7192 82.3642 12.0923C82.7099 11.4595 83.1786 10.9351 83.7704 10.5192C84.3621 10.0973 85.0242 9.8278 85.7566 9.71062V9.58759C84.7957 9.39424 84.0165 8.92845 83.4188 8.19023C82.8212 7.44614 82.5224 6.58194 82.5224 5.59764C82.5224 4.66606 82.7949 3.83702 83.3398 3.11051C83.8846 2.37814 84.6317 1.80396 85.5808 1.38798C86.5358 0.966132 87.6197 0.755209 88.8325 0.755209C90.0453 0.755209 91.1263 0.966132 92.0755 1.38798C93.0305 1.80982 93.7804 2.38693 94.3253 3.1193C94.8702 3.84581 95.1455 4.67192 95.1514 5.59764C95.1455 6.5878 94.8409 7.452 94.2374 8.19023C93.6339 8.92845 92.8606 9.39424 91.9173 9.58759V9.71062C92.6379 9.8278 93.2912 10.0973 93.8771 10.5192C94.4688 10.9351 94.9376 11.4595 95.2832 12.0923C95.6348 12.7192 95.8135 13.4076 95.8193 14.1576C95.8135 15.1302 95.5117 16.0002 94.9141 16.7677C94.3165 17.5353 93.4904 18.1417 92.4358 18.5869C91.387 19.0264 90.1859 19.2461 88.8325 19.2461ZM88.8325 16.4514C89.436 16.4514 89.9633 16.343 90.4144 16.1262C90.8656 15.9035 91.2171 15.5989 91.4691 15.2122C91.7268 14.8196 91.8557 14.3685 91.8557 13.8588C91.8557 13.3373 91.7239 12.8774 91.4603 12.479C91.1966 12.0747 90.8392 11.7583 90.3881 11.5298C89.9369 11.2955 89.4184 11.1783 88.8325 11.1783C88.2525 11.1783 87.734 11.2955 87.277 11.5298C86.82 11.7583 86.4596 12.0747 86.196 12.479C85.9382 12.8774 85.8093 13.3373 85.8093 13.8588C85.8093 14.3685 85.9353 14.8196 86.1872 15.2122C86.4391 15.5989 86.7936 15.9035 87.2506 16.1262C87.7076 16.343 88.2349 16.4514 88.8325 16.4514ZM88.8325 8.40994C89.3364 8.40994 89.7846 8.3074 90.1772 8.10234C90.5697 7.89728 90.8773 7.61312 91.0999 7.24986C91.3226 6.88661 91.4339 6.46769 91.4339 5.99312C91.4339 5.5244 91.3226 5.11427 91.0999 4.76274C90.8773 4.40534 90.5726 4.12704 90.1859 3.92783C89.7993 3.72277 89.3481 3.62024 88.8325 3.62024C88.3228 3.62024 87.8717 3.72277 87.4791 3.92783C87.0866 4.12704 86.779 4.40534 86.5563 4.76274C86.3395 5.11427 86.2311 5.5244 86.2311 5.99312C86.2311 6.46769 86.3425 6.88661 86.5651 7.24986C86.7877 7.61312 87.0953 7.89728 87.4879 8.10234C87.8804 8.3074 88.3287 8.40994 88.8325 8.40994ZM102.94 19L110.401 4.23543V4.11239H101.71V1.00129H114.338V4.15633L106.868 19H102.94ZM122.627 19.3955C121.115 19.3896 119.815 19.0176 118.725 18.2793C117.641 17.5411 116.806 16.4719 116.22 15.0716C115.64 13.6713 115.353 11.9868 115.359 10.0182C115.359 8.05547 115.649 6.38274 116.229 5.00002C116.815 3.61731 117.65 2.56563 118.734 1.84498C119.823 1.11846 121.121 0.755209 122.627 0.755209C124.133 0.755209 125.428 1.11846 126.511 1.84498C127.601 2.57149 128.439 3.6261 129.025 5.00881C129.611 6.38567 129.901 8.05547 129.895 10.0182C129.895 11.9927 129.602 13.6801 129.016 15.0804C128.436 16.4806 127.604 17.5499 126.52 18.2881C125.436 19.0264 124.139 19.3955 122.627 19.3955ZM122.627 16.2404C123.658 16.2404 124.481 15.7219 125.097 14.6849C125.712 13.6478 126.016 12.0923 126.011 10.0182C126.011 8.65308 125.87 7.51645 125.589 6.60831C125.313 5.70017 124.921 5.0176 124.411 4.5606C123.907 4.1036 123.312 3.8751 122.627 3.8751C121.602 3.8751 120.781 4.38776 120.166 5.41308C119.551 6.4384 119.24 7.97344 119.235 10.0182C119.235 11.4009 119.372 12.5551 119.648 13.4809C119.929 14.4007 120.324 15.0921 120.834 15.5549C121.344 16.0119 121.941 16.2404 122.627 16.2404ZM143.414 19.3955C141.902 19.3896 140.601 19.0176 139.511 18.2793C138.428 17.5411 137.593 16.4719 137.007 15.0716C136.427 13.6713 136.14 11.9868 136.146 10.0182C136.146 8.05547 136.436 6.38274 137.016 5.00002C137.601 3.61731 138.436 2.56563 139.52 1.84498C140.61 1.11846 141.908 0.755209 143.414 0.755209C144.919 0.755209 146.214 1.11846 147.298 1.84498C148.388 2.57149 149.226 3.6261 149.812 5.00881C150.397 6.38567 150.687 8.05547 150.682 10.0182C150.682 11.9927 150.389 13.6801 149.803 15.0804C149.223 16.4806 148.391 17.5499 147.307 18.2881C146.223 19.0264 144.925 19.3955 143.414 19.3955ZM143.414 16.2404C144.445 16.2404 145.268 15.7219 145.883 14.6849C146.498 13.6478 146.803 12.0923 146.797 10.0182C146.797 8.65308 146.656 7.51645 146.375 6.60831C146.1 5.70017 145.707 5.0176 145.198 4.5606C144.694 4.1036 144.099 3.8751 143.414 3.8751C142.388 3.8751 141.568 4.38776 140.953 5.41308C140.338 6.4384 140.027 7.97344 140.021 10.0182C140.021 11.4009 140.159 12.5551 140.434 13.4809C140.715 14.4007 141.111 15.0921 141.621 15.5549C142.13 16.0119 142.728 16.2404 143.414 16.2404ZM159.119 19.2461C157.766 19.2461 156.562 19.0264 155.507 18.5869C154.459 18.1417 153.635 17.5353 153.038 16.7677C152.44 16.0002 152.141 15.1302 152.141 14.1576C152.141 13.4076 152.311 12.7192 152.651 12.0923C152.997 11.4595 153.466 10.9351 154.057 10.5192C154.649 10.0973 155.311 9.8278 156.043 9.71062V9.58759C155.083 9.39424 154.303 8.92845 153.706 8.19023C153.108 7.44614 152.809 6.58194 152.809 5.59764C152.809 4.66606 153.082 3.83702 153.627 3.11051C154.172 2.37814 154.919 1.80396 155.868 1.38798C156.823 0.966132 157.907 0.755209 159.119 0.755209C160.332 0.755209 161.413 0.966132 162.362 1.38798C163.317 1.80982 164.067 2.38693 164.612 3.1193C165.157 3.84581 165.432 4.67192 165.438 5.59764C165.432 6.5878 165.128 7.452 164.524 8.19023C163.921 8.92845 163.147 9.39424 162.204 9.58759V9.71062C162.925 9.8278 163.578 10.0973 164.164 10.5192C164.756 10.9351 165.224 11.4595 165.57 12.0923C165.922 12.7192 166.1 13.4076 166.106 14.1576C166.1 15.1302 165.799 16.0002 165.201 16.7677C164.603 17.5353 163.777 18.1417 162.723 18.5869C161.674 19.0264 160.473 19.2461 159.119 19.2461ZM159.119 16.4514C159.723 16.4514 160.25 16.343 160.701 16.1262C161.153 15.9035 161.504 15.5989 161.756 15.2122C162.014 14.8196 162.143 14.3685 162.143 13.8588C162.143 13.3373 162.011 12.8774 161.747 12.479C161.484 12.0747 161.126 11.7583 160.675 11.5298C160.224 11.2955 159.705 11.1783 159.119 11.1783C158.539 11.1783 158.021 11.2955 157.564 11.5298C157.107 11.7583 156.747 12.0747 156.483 12.479C156.225 12.8774 156.096 13.3373 156.096 13.8588C156.096 14.3685 156.222 14.8196 156.474 15.2122C156.726 15.5989 157.081 15.9035 157.538 16.1262C157.995 16.343 158.522 16.4514 159.119 16.4514ZM159.119 8.40994C159.623 8.40994 160.072 8.3074 160.464 8.10234C160.857 7.89728 161.164 7.61312 161.387 7.24986C161.609 6.88661 161.721 6.46769 161.721 5.99312C161.721 5.5244 161.609 5.11427 161.387 4.76274C161.164 4.40534 160.86 4.12704 160.473 3.92783C160.086 3.72277 159.635 3.62024 159.119 3.62024C158.61 3.62024 158.159 3.72277 157.766 3.92783C157.373 4.12704 157.066 4.40534 156.843 4.76274C156.626 5.11427 156.518 5.5244 156.518 5.99312C156.518 6.46769 156.629 6.88661 156.852 7.24986C157.075 7.61312 157.382 7.89728 157.775 8.10234C158.167 8.3074 158.616 8.40994 159.119 8.40994ZM172.242 15.8362V12.8393L179.757 1.00129H182.34V5.14943H180.811L176.074 12.646V12.7866H186.752V15.8362H172.242ZM180.882 19V14.9222L180.952 13.5951V1.00129H184.52V19H180.882ZM194.951 19.2461C193.638 19.2461 192.469 19.0205 191.444 18.5694C190.425 18.1124 189.619 17.4855 189.027 16.6886C188.441 15.886 188.14 14.9602 188.122 13.9115H191.954C191.977 14.3509 192.121 14.7376 192.384 15.0716C192.654 15.3997 193.011 15.6545 193.457 15.8362C193.902 16.0178 194.403 16.1086 194.959 16.1086C195.539 16.1086 196.052 16.0061 196.497 15.801C196.943 15.5959 197.291 15.3118 197.543 14.9485C197.795 14.5853 197.921 14.1664 197.921 13.6918C197.921 13.2114 197.786 12.7866 197.517 12.4175C197.253 12.0425 196.872 11.7495 196.374 11.5386C195.882 11.3277 195.296 11.2222 194.617 11.2222H192.938V8.42751H194.617C195.191 8.42751 195.698 8.32791 196.137 8.12871C196.582 7.9295 196.928 7.65413 197.174 7.30259C197.42 6.9452 197.543 6.52921 197.543 6.05464C197.543 5.6035 197.435 5.20802 197.218 4.8682C197.007 4.52252 196.708 4.25301 196.322 4.05966C195.941 3.86632 195.495 3.76964 194.986 3.76964C194.47 3.76964 193.999 3.86339 193.571 4.05087C193.143 4.2325 192.8 4.49322 192.543 4.83304C192.285 5.17286 192.147 5.57127 192.13 6.02827H188.482C188.5 4.99123 188.796 4.07724 189.37 3.28628C189.944 2.49532 190.717 1.8772 191.69 1.43192C192.669 0.980779 193.773 0.755209 195.003 0.755209C196.245 0.755209 197.332 0.980779 198.264 1.43192C199.195 1.88306 199.919 2.49239 200.435 3.25991C200.956 4.02158 201.214 4.87699 201.208 5.82614C201.214 6.83388 200.9 7.67464 200.268 8.34842C199.641 9.0222 198.823 9.4499 197.816 9.63153V9.77214C199.14 9.94205 200.147 10.402 200.839 11.1519C201.536 11.896 201.882 12.8276 201.876 13.9467C201.882 14.972 201.586 15.883 200.988 16.6799C200.396 17.4767 199.579 18.1036 198.536 18.5606C197.493 19.0176 196.298 19.2461 194.951 19.2461ZM204.333 19L211.795 4.23543V4.11239H203.103V1.00129H215.732V4.15633L208.262 19H204.333Z" fill="white"/>
</svg>
