<svg width="800" height="150" viewBox="0 0 800 150" fill="none" xmlns="http://www.w3.org/2000/svg">
<path d="M672.819 27.1105C672.609 27.0205 672.389 27.0205 672.179 27.1105L610.679 43.9805H610.669C607.199 43.4705 603.489 43.2205 599.519 43.2205C590.059 43.2205 582.019 44.5905 575.389 47.3205C568.749 50.0605 563.649 53.7405 560.079 58.3405C556.719 62.6705 554.769 67.4605 554.209 72.7005C554.149 73.2405 554.589 73.7205 555.139 73.7205H575.809C576.229 73.7205 576.579 73.4205 576.669 73.0105C577.499 69.2205 579.609 66.2505 583.019 64.1205C586.639 61.8605 591.699 60.7305 598.209 60.7305C604.719 60.7305 609.189 61.6505 612.329 63.4705C615.459 65.2905 617.039 67.8705 617.039 71.2105C617.039 74.2305 615.689 76.6705 612.989 78.5405C610.279 80.4105 605.639 81.3405 599.039 81.3405H584.429C583.949 81.3405 583.549 81.7305 583.549 82.2205V95.8405C583.549 96.3205 583.939 96.7205 584.429 96.7205H599.039C604.129 96.7205 608.099 97.1205 610.959 97.9105C613.819 98.7105 615.839 99.8405 617.039 101.31C618.229 102.78 618.819 104.62 618.819 106.85C618.819 110.66 617.019 113.62 613.399 115.72C609.779 117.83 604.529 118.87 597.619 118.87C590.309 118.87 584.729 117.7 580.869 115.36C577.239 113.15 575.039 110.03 574.269 106.01C574.189 105.59 573.839 105.28 573.409 105.28H552.739C552.199 105.28 551.769 105.74 551.809 106.28C552.289 112.15 554.309 117.27 557.889 121.67C561.659 126.31 566.939 129.93 573.729 132.51C580.519 135.09 588.489 136.39 597.619 136.39C606.749 136.39 614.959 135.17 621.509 132.75C627.049 130.71 631.459 128.03 634.759 124.73C635.099 124.39 635.089 123.84 634.759 123.5C634.679 123.41 634.589 123.33 634.509 123.24C631.839 120.51 629.629 117.41 627.859 113.92C624.289 106.89 622.489 98.8505 622.489 89.7905C622.489 89.3905 622.489 88.9805 622.499 88.5805C622.499 88.2905 622.509 88.0105 622.519 87.7205C622.779 79.5105 624.549 72.1805 627.849 65.7305C629.779 61.9505 632.239 58.6005 635.209 55.7005C637.709 53.2205 640.609 51.0705 643.869 49.2305C650.969 45.2205 659.739 43.2105 670.139 43.2105C677.769 43.2105 684.499 44.3805 690.339 46.6605C696.179 48.9705 700.919 52.0905 704.569 56.0205C705.239 56.7405 705.849 57.4705 706.439 58.2205C708.779 61.3005 710.319 64.6905 711.069 68.3805C711.179 68.9205 710.749 69.4205 710.209 69.4205H699.179H690.829C690.489 69.4205 690.199 69.2205 690.049 68.9205C688.829 66.4405 686.799 64.3605 683.969 62.6905C680.959 60.9105 676.539 60.0105 670.739 60.0105C664.549 60.0105 659.449 61.1505 655.429 63.4705C651.419 65.7705 648.469 69.0505 646.549 73.2905C644.649 77.5405 643.689 82.7705 643.689 88.9705C643.689 89.4205 643.709 89.8805 643.719 90.3205C644.169 89.8305 644.649 89.3705 645.119 88.9105C649.079 85.0605 653.769 82.0005 659.179 79.7305C664.579 77.4605 670.689 76.3305 677.519 76.3305C684.349 76.3305 690.779 77.4705 696.029 79.7505C696.199 79.8305 696.379 79.8905 696.539 79.9805C701.899 82.4005 706.029 85.7905 708.929 90.1605C711.819 94.5205 713.269 99.5705 713.269 105.29C713.269 111.33 711.609 116.69 708.259 121.38C708.139 121.55 708.019 121.71 707.899 121.88L707.989 123.02C710.979 125.95 714.449 128.48 718.389 130.55C725.779 134.44 734.509 136.38 744.599 136.38C754.689 136.38 763.299 134.44 770.689 130.55C778.079 126.65 783.809 121.21 787.849 114.23C791.909 107.23 793.929 99.0905 793.929 89.8005C793.929 80.5105 791.909 72.2705 787.849 65.3205C787.179 64.1705 786.459 63.0705 785.709 62.0005C785.509 61.7105 785.499 61.3405 785.679 61.0405C787.219 58.5205 788.109 55.5605 788.109 52.4005C788.109 43.2605 780.669 35.8205 771.539 35.8205C765.539 35.8205 760.269 39.0305 757.359 43.8305C757.169 44.1405 756.819 44.3105 756.459 44.2405C752.739 43.5605 748.789 43.2205 744.609 43.2205C738.689 43.2205 735.289 43.3805 730.299 44.7305L672.839 27.1205L672.819 27.1105ZM764.209 46.2705C767.319 42.5605 773.199 41.2505 778.679 45.5405C778.759 45.6005 778.839 45.6905 778.889 45.7705C781.309 49.4305 781.539 53.0305 780.389 55.9305C778.219 61.3205 771.289 64.3105 764.839 59.6105C764.769 59.5605 764.699 59.4905 764.649 59.4305C760.849 54.7605 761.429 49.5705 764.209 46.2705ZM764.429 110.66C759.699 115.58 753.089 118.05 744.599 118.05C736.109 118.05 729.459 115.59 724.699 110.66C724.189 110.14 723.719 109.6 723.289 109.03C719.459 104.25 717.559 97.8305 717.559 89.8005C717.559 81.7705 719.459 75.3605 723.289 70.5805C723.719 70.0205 724.199 69.4705 724.699 68.9505C729.459 64.0305 736.089 61.5705 744.599 61.5705C753.109 61.5705 759.699 64.0305 764.429 68.9505C769.159 73.8705 771.519 80.8405 771.519 89.8005C771.519 98.7605 769.159 105.74 764.429 110.66Z" fill="white"/>
<path d="M682.519 94.86C679.819 93.79 676.349 93.25 672.159 93.25C666.679 93.25 661.449 94.51 656.489 97.01C652.939 98.8 649.679 101.11 646.719 103.94C646.459 104.19 646.369 104.58 646.509 104.91C646.619 105.16 646.719 105.42 646.839 105.66C648.949 110.17 652.049 113.62 656.189 115.96C660.329 118.3 665.369 119.47 671.329 119.47C675.539 119.47 679.089 118.9 681.999 117.75C684.889 116.59 687.069 114.99 688.539 112.91C690.019 110.85 690.749 108.55 690.749 106C690.749 103.45 690.049 101.24 688.659 99.33C687.269 97.43 685.229 95.94 682.529 94.86H682.519Z" fill="white"/>
<path d="M78.0301 114.48C72.5001 118.33 65.7801 120.27 57.8501 120.27C51.6001 120.27 46.1201 119.04 41.4301 116.59C36.7401 114.14 33.1101 110.62 30.5601 106.03C28.0001 101.45 26.7201 96.0203 26.7201 89.7703C26.7201 83.5203 28.0001 77.9703 30.5601 73.4303C33.1101 68.8903 36.7301 65.4003 41.4301 62.9503C46.1201 60.5103 51.6001 59.2803 57.8501 59.2803C65.6701 59.2803 72.3401 61.1503 77.8701 64.9103C81.7901 67.5703 84.6901 70.9703 86.5601 75.1003C86.7001 75.4103 87.0101 75.6203 87.3501 75.6203H106.68C107.26 75.6203 107.69 75.0603 107.52 74.5003C106.03 69.5503 103.61 65.0803 100.24 61.0703C95.5501 55.4903 89.5501 51.1403 82.2501 48.0103C74.9601 44.8803 66.8201 43.3203 57.8501 43.3203C47.6301 43.3203 38.6401 45.2703 30.8701 49.1903C23.1001 53.1003 17.0301 58.5403 12.6501 65.5303C8.27008 72.5203 6.08008 80.6003 6.08008 89.7703C6.08008 98.9403 8.27008 107.03 12.6501 114.01C17.0301 121 23.1001 126.45 30.8701 130.35C38.6401 134.26 47.6301 136.22 57.8501 136.22C66.8201 136.22 74.9501 134.66 82.2501 131.53C89.5401 128.4 95.5401 124.05 100.24 118.47C103.63 114.45 106.06 109.98 107.54 105.05C107.71 104.49 107.28 103.93 106.7 103.93H87.4101C87.0701 103.93 86.7601 104.13 86.6201 104.44C84.8001 108.41 81.9301 111.75 78.0401 114.48H78.0301Z" fill="white"/>
<path d="M143.77 13.5996H125.2C124.714 13.5996 124.32 13.9936 124.32 14.4796V133.15C124.32 133.636 124.714 134.03 125.2 134.03H143.77C144.256 134.03 144.65 133.636 144.65 133.15V14.4796C144.65 13.9936 144.256 13.5996 143.77 13.5996Z" fill="white"/>
<path d="M254.6 68.6505C251.12 60.4005 245.03 54.3905 237.79 49.9605C230.54 45.5305 221.97 43.3105 212.06 43.3105C202.15 43.3105 193.37 45.2705 185.71 49.1805C178.05 53.0905 172.05 58.5105 167.72 65.4505C163.39 72.3805 161.23 80.4405 161.23 89.6105C161.23 98.7805 163.52 107.021 168.11 114.011C172.7 121.001 179 126.441 187.03 130.351C195.06 134.261 204.23 136.221 214.56 136.221C222.59 136.221 230.49 135.021 238.25 132.621C245.85 130.271 252.33 127.081 257.69 123.031C257.91 122.861 258.04 122.601 258.04 122.321V109.731C258.04 109.021 257.25 108.621 256.67 109.011C251.57 112.421 245.77 115.101 239.27 117.061C232.18 119.201 225.25 120.271 218.47 120.271C210.96 120.271 204.47 118.991 199 116.441C193.53 113.891 189.59 110.021 186.33 105.411C184.52 102.861 183.04 99.6105 182.62 96.7305C182.54 96.2005 182.95 95.7205 183.49 95.7205H257.17C257.65 95.7205 258.05 95.3205 258.05 94.8405C258.05 84.4405 257.98 76.6505 254.61 68.6605L254.6 68.6505ZM196.03 62.8705C200.46 60.4705 205.65 59.2705 211.59 59.2705C217.22 59.2705 222.09 60.3905 226.21 62.6305C230.33 64.8705 233.61 68.0805 236.06 72.2505C237.49 74.6805 238.55 77.4105 239.25 80.4105C239.38 80.9505 238.95 81.4805 238.39 81.4805H183.59C183.03 81.4805 182.6 80.9605 182.73 80.4205C183.35 77.7105 184.31 75.2205 185.62 72.9605C188.12 68.6305 191.59 65.2705 196.02 62.8705H196.03Z" fill="white"/>
<path d="M360.65 45.5105C360.2 45.5105 359.83 45.8505 359.78 46.2905L357.59 67.2705C357.18 66.6005 356.77 65.9305 356.34 65.2905C351.7 58.3605 346.02 52.9605 339.29 49.1005C332.56 45.2405 325.08 43.3105 316.85 43.3105C308.19 43.3105 300.53 45.2705 293.86 49.1805C287.19 53.0905 281.97 58.5105 278.22 65.4505C274.47 72.3805 272.59 80.4905 272.59 89.7705C272.59 99.0505 274.47 107.031 278.22 114.011C281.97 121.001 287.19 126.441 293.86 130.351C300.53 134.261 308.19 136.221 316.85 136.221C325.51 136.221 332.57 134.291 339.29 130.431C346.01 126.571 351.67 121.151 356.26 114.161C356.71 113.481 357.13 112.771 357.56 112.071L359.78 133.241C359.83 133.691 360.2 134.021 360.65 134.021H379.85C380.37 134.021 380.78 133.571 380.72 133.051L376.14 89.8505C376.14 89.7905 376.14 89.7305 376.14 89.6705L380.72 46.4705C380.77 45.9505 380.37 45.5005 379.85 45.5005H360.66L360.65 45.5105ZM350.08 105.491C346.38 110.031 342.13 113.571 337.33 116.131C332.53 118.691 327.32 119.961 321.69 119.961C316.06 119.961 311.26 118.681 306.99 116.131C302.71 113.581 299.35 110.031 296.9 105.491C294.45 100.951 293.22 95.7105 293.22 89.7705C293.22 83.8305 294.44 78.5905 296.9 74.0505C299.35 69.5105 302.71 65.9705 306.99 63.4105C311.26 60.8605 316.16 59.5805 321.69 59.5805C327.22 59.5805 332.53 60.8605 337.33 63.4105C342.12 65.9705 346.37 69.5105 350.08 74.0505C353.71 78.5005 356.62 83.6405 358.8 89.4505C358.88 89.6505 358.88 89.8805 358.8 90.0905C356.62 95.9005 353.72 101.041 350.08 105.491Z" fill="white"/>
<path d="M491.62 62.6303C488.54 56.4303 484.09 51.6603 478.25 48.3203C472.41 44.9803 465.32 43.3203 456.98 43.3203C449.47 43.3203 442.69 45.0703 436.65 48.5603C430.6 52.0503 425.65 57.0303 421.79 63.5003C421.59 63.8303 421.4 64.1703 421.21 64.5103C420.81 65.2303 419.72 65.0303 419.59 64.2203L416.59 46.2503C416.52 45.8303 416.15 45.5203 415.73 45.5203H397.19C396.64 45.5203 396.23 46.0203 396.33 46.5503L401.44 74.3703C401.44 74.4203 401.45 74.4803 401.45 74.5303V133.16C401.45 133.64 401.84 134.04 402.33 134.04H420.91C421.39 134.04 421.79 133.65 421.79 133.16V90.8703C421.79 84.7203 422.96 79.3503 425.31 74.7603C427.66 70.1703 430.99 66.6003 435.32 64.0503C439.65 61.5003 444.68 60.2203 450.41 60.2203C458.75 60.2203 465.08 62.5903 469.41 67.3403C473.74 72.0903 475.9 79.1003 475.9 88.3803V133.17C475.9 133.65 476.29 134.05 476.78 134.05H495.36C495.84 134.05 496.24 133.66 496.24 133.17V85.0903C496.24 76.3303 494.7 68.8503 491.63 62.6503L491.62 62.6303Z" fill="white"/>
</svg>
