<svg width="214" height="20" viewBox="0 0 214 20" fill="none" xmlns="http://www.w3.org/2000/svg">
<path d="M5.06824 16.258V3.81358H8.2145V16.258H5.06824ZM0.419155 11.6089V8.46267H12.8636V11.6089H0.419155ZM22.0529 19.2461C20.7404 19.2461 19.5716 19.0205 18.5463 18.5694C17.5268 18.1124 16.7212 17.4855 16.1294 16.6886C15.5436 15.886 15.2418 14.9602 15.2242 13.9115H19.056C19.0794 14.3509 19.223 14.7376 19.4866 15.0716C19.7561 15.3997 20.1135 15.6545 20.5588 15.8362C21.0041 16.0178 21.505 16.1086 22.0616 16.1086C22.6417 16.1086 23.1543 16.0061 23.5996 15.801C24.0449 15.5959 24.3935 15.3118 24.6454 14.9485C24.8974 14.5853 25.0233 14.1664 25.0233 13.6918C25.0233 13.2114 24.8886 12.7866 24.6191 12.4175C24.3554 12.0425 23.9746 11.7495 23.4766 11.5386C22.9844 11.3277 22.3985 11.2222 21.7189 11.2222H20.0403V8.42751H21.7189C22.2931 8.42751 22.7999 8.32791 23.2393 8.12871C23.6846 7.9295 24.0303 7.65413 24.2763 7.30259C24.5224 6.9452 24.6454 6.52921 24.6454 6.05464C24.6454 5.6035 24.5371 5.20802 24.3203 4.8682C24.1093 4.52252 23.8105 4.25301 23.4238 4.05966C23.043 3.86632 22.5977 3.76964 22.088 3.76964C21.5724 3.76964 21.1008 3.86339 20.6731 4.05087C20.2454 4.2325 19.9026 4.49322 19.6448 4.83304C19.387 5.17286 19.2493 5.57127 19.2318 6.02827H15.5846C15.6021 4.99123 15.898 4.07724 16.4722 3.28628C17.0464 2.49532 17.8198 1.8772 18.7923 1.43192C19.7708 0.980779 20.8752 0.755209 22.1056 0.755209C23.3477 0.755209 24.4345 0.980779 25.3661 1.43192C26.2977 1.88306 27.0212 2.49239 27.5368 3.25991C28.0583 4.02158 28.3161 4.87699 28.3102 5.82614C28.3161 6.83388 28.0026 7.67464 27.3699 8.34842C26.7429 9.0222 25.9256 9.4499 24.9179 9.63153V9.77214C26.242 9.94205 27.2497 10.402 27.9411 11.1519C28.6383 11.896 28.984 12.8276 28.9781 13.9467C28.984 14.972 28.6881 15.883 28.0905 16.6799C27.4988 17.4767 26.6814 18.1036 25.6385 18.5606C24.5956 19.0176 23.4004 19.2461 22.0529 19.2461ZM37.438 19.2461C36.0846 19.2461 34.8805 19.0264 33.8259 18.5869C32.7772 18.1417 31.954 17.5353 31.3564 16.7677C30.7588 16.0002 30.46 15.1302 30.46 14.1576C30.46 13.4076 30.6299 12.7192 30.9697 12.0923C31.3154 11.4595 31.7841 10.9351 32.3758 10.5192C32.9676 10.0973 33.6297 9.8278 34.362 9.71062V9.58759C33.4012 9.39424 32.6219 8.92845 32.0243 8.19023C31.4267 7.44614 31.1279 6.58194 31.1279 5.59764C31.1279 4.66606 31.4003 3.83702 31.9452 3.11051C32.4901 2.37814 33.2371 1.80396 34.1863 1.38798C35.1413 0.966132 36.2252 0.755209 37.438 0.755209C38.6508 0.755209 39.7318 0.966132 40.6809 1.38798C41.6359 1.80982 42.3859 2.38693 42.9307 3.1193C43.4756 3.84581 43.751 4.67192 43.7569 5.59764C43.751 6.5878 43.4463 7.452 42.8429 8.19023C42.2394 8.92845 41.466 9.39424 40.5227 9.58759V9.71062C41.2434 9.8278 41.8966 10.0973 42.4825 10.5192C43.0743 10.9351 43.543 11.4595 43.8887 12.0923C44.2402 12.7192 44.4189 13.4076 44.4248 14.1576C44.4189 15.1302 44.1172 16.0002 43.5196 16.7677C42.922 17.5353 42.0958 18.1417 41.0412 18.5869C39.9925 19.0264 38.7914 19.2461 37.438 19.2461ZM37.438 16.4514C38.0414 16.4514 38.5688 16.343 39.0199 16.1262C39.471 15.9035 39.8226 15.5989 40.0745 15.2122C40.3323 14.8196 40.4612 14.3685 40.4612 13.8588C40.4612 13.3373 40.3294 12.8774 40.0657 12.479C39.8021 12.0747 39.4447 11.7583 38.9935 11.5298C38.5424 11.2955 38.0239 11.1783 37.438 11.1783C36.8579 11.1783 36.3394 11.2955 35.8824 11.5298C35.4254 11.7583 35.0651 12.0747 34.8014 12.479C34.5437 12.8774 34.4148 13.3373 34.4148 13.8588C34.4148 14.3685 34.5407 14.8196 34.7927 15.2122C35.0446 15.5989 35.3991 15.9035 35.8561 16.1262C36.3131 16.343 36.8404 16.4514 37.438 16.4514ZM37.438 8.40994C37.9418 8.40994 38.3901 8.3074 38.7826 8.10234C39.1752 7.89728 39.4828 7.61312 39.7054 7.24986C39.928 6.88661 40.0394 6.46769 40.0394 5.99312C40.0394 5.5244 39.928 5.11427 39.7054 4.76274C39.4828 4.40534 39.1781 4.12704 38.7914 3.92783C38.4047 3.72277 37.9536 3.62024 37.438 3.62024C36.9282 3.62024 36.4771 3.72277 36.0846 3.92783C35.692 4.12704 35.3844 4.40534 35.1618 4.76274C34.945 5.11427 34.8366 5.5244 34.8366 5.99312C34.8366 6.46769 34.9479 6.88661 35.1706 7.24986C35.3932 7.61312 35.7008 7.89728 36.0933 8.10234C36.4859 8.3074 36.9341 8.40994 37.438 8.40994ZM57.8906 19.3955C56.379 19.3896 55.0783 19.0176 53.9885 18.2793C52.9046 17.5411 52.0697 16.4719 51.4838 15.0716C50.9038 13.6713 50.6167 11.9868 50.6226 10.0182C50.6226 8.05547 50.9126 6.38274 51.4926 5.00002C52.0785 3.61731 52.9134 2.56563 53.9973 1.84498C55.0871 1.11846 56.3848 0.755209 57.8906 0.755209C59.3963 0.755209 60.6912 1.11846 61.7751 1.84498C62.8649 2.57149 63.7027 3.6261 64.2886 5.00881C64.8745 6.38567 65.1645 8.05547 65.1586 10.0182C65.1586 11.9927 64.8657 13.6801 64.2798 15.0804C63.6998 16.4806 62.8678 17.5499 61.7839 18.2881C60.7 19.0264 59.4022 19.3955 57.8906 19.3955ZM57.8906 16.2404C58.9218 16.2404 59.745 15.7219 60.3601 14.6849C60.9753 13.6478 61.28 12.0923 61.2741 10.0182C61.2741 8.65308 61.1335 7.51645 60.8523 6.60831C60.5769 5.70017 60.1844 5.0176 59.6746 4.5606C59.1708 4.1036 58.5761 3.8751 57.8906 3.8751C56.8653 3.8751 56.045 4.38776 55.4298 5.41308C54.8146 6.4384 54.5041 7.97344 54.4983 10.0182C54.4983 11.4009 54.6359 12.5551 54.9113 13.4809C55.1925 14.4007 55.588 15.0921 56.0978 15.5549C56.6075 16.0119 57.2051 16.2404 57.8906 16.2404ZM73.3944 0.755209C74.3201 0.755209 75.2106 0.910471 76.066 1.221C76.9273 1.53152 77.6948 2.0266 78.3686 2.70624C79.0483 3.38588 79.5843 4.28816 79.9769 5.41308C80.3753 6.53214 80.5774 7.90607 80.5833 9.53486C80.5833 11.064 80.4105 12.4292 80.0648 13.6303C79.725 14.8255 79.2357 15.842 78.5971 16.6799C77.9585 17.5177 77.188 18.1563 76.2858 18.5957C75.3835 19.0293 74.3757 19.2461 73.2625 19.2461C72.0614 19.2461 71.001 19.0146 70.0811 18.5518C69.1613 18.0831 68.4201 17.4474 67.8576 16.6447C67.301 15.8362 66.9642 14.928 66.847 13.9203H70.5996C70.7461 14.5765 71.0537 15.0862 71.5224 15.4495C71.9911 15.8069 72.5712 15.9856 73.2625 15.9856C74.4343 15.9856 75.3249 15.4758 75.9342 14.4564C76.5435 13.4311 76.8511 12.0278 76.857 10.2467H76.734C76.4645 10.774 76.1012 11.2281 75.6442 11.6089C75.1872 11.9839 74.6628 12.2739 74.0711 12.479C73.4852 12.684 72.8612 12.7866 72.1991 12.7866C71.1387 12.7866 70.1924 12.5376 69.3605 12.0396C68.5285 11.5415 67.8723 10.8561 67.3919 9.98307C66.9114 9.11008 66.6712 8.11406 66.6712 6.995C66.6653 5.78805 66.9436 4.71293 67.5061 3.76964C68.0686 2.82635 68.8537 2.08812 69.8614 1.55496C70.875 1.01593 72.0527 0.74935 73.3944 0.755209ZM73.4207 3.74328C72.829 3.74328 72.3017 3.88389 71.8388 4.16512C71.3818 4.44635 71.0186 4.82425 70.749 5.29883C70.4854 5.7734 70.3565 6.30364 70.3623 6.88954C70.3623 7.48129 70.4912 8.01446 70.749 8.48903C71.0127 8.95775 71.3701 9.33272 71.8212 9.61395C72.2782 9.88932 72.7997 10.027 73.3856 10.027C73.825 10.027 74.2322 9.94498 74.6072 9.78093C74.9821 9.61688 75.3073 9.39131 75.5827 9.10422C75.8639 8.81127 76.0836 8.47438 76.2418 8.09355C76.4 7.71272 76.4791 7.30845 76.4791 6.88075C76.4732 6.31243 76.3385 5.79098 76.0748 5.31641C75.8112 4.84183 75.4479 4.461 74.9851 4.17391C74.5222 3.88682 74.0008 3.74328 73.4207 3.74328ZM88.8827 19.2461C87.5703 19.2461 86.4015 19.0205 85.3762 18.5694C84.3567 18.1124 83.5511 17.4855 82.9593 16.6886C82.3734 15.886 82.0717 14.9602 82.0541 13.9115H85.8859C85.9093 14.3509 86.0529 14.7376 86.3165 15.0716C86.586 15.3997 86.9434 15.6545 87.3887 15.8362C87.834 16.0178 88.3349 16.1086 88.8915 16.1086C89.4716 16.1086 89.9842 16.0061 90.4295 15.801C90.8748 15.5959 91.2234 15.3118 91.4753 14.9485C91.7273 14.5853 91.8532 14.1664 91.8532 13.6918C91.8532 13.2114 91.7185 12.7866 91.449 12.4175C91.1853 12.0425 90.8045 11.7495 90.3065 11.5386C89.8143 11.3277 89.2284 11.2222 88.5488 11.2222H86.8702V8.42751H88.5488C89.123 8.42751 89.6298 8.32791 90.0692 8.12871C90.5145 7.9295 90.8601 7.65413 91.1062 7.30259C91.3523 6.9452 91.4753 6.52921 91.4753 6.05464C91.4753 5.6035 91.3669 5.20802 91.1502 4.8682C90.9392 4.52252 90.6404 4.25301 90.2537 4.05966C89.8729 3.86632 89.4276 3.76964 88.9179 3.76964C88.4023 3.76964 87.9307 3.86339 87.503 4.05087C87.0753 4.2325 86.7325 4.49322 86.4747 4.83304C86.2169 5.17286 86.0792 5.57127 86.0617 6.02827H82.4145C82.432 4.99123 82.7279 4.07724 83.3021 3.28628C83.8763 2.49532 84.6496 1.8772 85.6222 1.43192C86.6007 0.980779 87.7051 0.755209 88.9355 0.755209C90.1776 0.755209 91.2644 0.980779 92.196 1.43192C93.1276 1.88306 93.8511 2.49239 94.3667 3.25991C94.8882 4.02158 95.146 4.87699 95.1401 5.82614C95.146 6.83388 94.8325 7.67464 94.1997 8.34842C93.5728 9.0222 92.7555 9.4499 91.7478 9.63153V9.77214C93.0719 9.94205 94.0796 10.402 94.771 11.1519C95.4682 11.896 95.8139 12.8276 95.808 13.9467C95.8139 14.972 95.518 15.883 94.9204 16.6799C94.3286 17.4767 93.5113 18.1036 92.4684 18.5606C91.4255 19.0176 90.2303 19.2461 88.8827 19.2461ZM109.349 19.3955C107.837 19.3896 106.536 19.0176 105.446 18.2793C104.363 17.5411 103.528 16.4719 102.942 15.0716C102.362 13.6713 102.075 11.9868 102.081 10.0182C102.081 8.05547 102.371 6.38274 102.951 5.00002C103.536 3.61731 104.371 2.56563 105.455 1.84498C106.545 1.11846 107.843 0.755209 109.349 0.755209C110.854 0.755209 112.149 1.11846 113.233 1.84498C114.323 2.57149 115.161 3.6261 115.747 5.00881C116.332 6.38567 116.622 8.05547 116.617 10.0182C116.617 11.9927 116.324 13.6801 115.738 15.0804C115.158 16.4806 114.326 17.5499 113.242 18.2881C112.158 19.0264 110.86 19.3955 109.349 19.3955ZM109.349 16.2404C110.38 16.2404 111.203 15.7219 111.818 14.6849C112.433 13.6478 112.738 12.0923 112.732 10.0182C112.732 8.65308 112.591 7.51645 112.31 6.60831C112.035 5.70017 111.642 5.0176 111.133 4.5606C110.629 4.1036 110.034 3.8751 109.349 3.8751C108.323 3.8751 107.503 4.38776 106.888 5.41308C106.273 6.4384 105.962 7.97344 105.956 10.0182C105.956 11.4009 106.094 12.5551 106.369 13.4809C106.651 14.4007 107.046 15.0921 107.556 15.5549C108.065 16.0119 108.663 16.2404 109.349 16.2404ZM125.397 19.3955C123.886 19.3896 122.585 19.0176 121.495 18.2793C120.411 17.5411 119.576 16.4719 118.99 15.0716C118.41 13.6713 118.123 11.9868 118.129 10.0182C118.129 8.05547 118.419 6.38274 118.999 5.00002C119.585 3.61731 120.42 2.56563 121.504 1.84498C122.594 1.11846 123.891 0.755209 125.397 0.755209C126.903 0.755209 128.198 1.11846 129.282 1.84498C130.371 2.57149 131.209 3.6261 131.795 5.00881C132.381 6.38567 132.671 8.05547 132.665 10.0182C132.665 11.9927 132.372 13.6801 131.786 15.0804C131.206 16.4806 130.374 17.5499 129.29 18.2881C128.207 19.0264 126.909 19.3955 125.397 19.3955ZM125.397 16.2404C126.428 16.2404 127.252 15.7219 127.867 14.6849C128.482 13.6478 128.787 12.0923 128.781 10.0182C128.781 8.65308 128.64 7.51645 128.359 6.60831C128.084 5.70017 127.691 5.0176 127.181 4.5606C126.677 4.1036 126.083 3.8751 125.397 3.8751C124.372 3.8751 123.552 4.38776 122.936 5.41308C122.321 6.4384 122.011 7.97344 122.005 10.0182C122.005 11.4009 122.143 12.5551 122.418 13.4809C122.699 14.4007 123.095 15.0921 123.604 15.5549C124.114 16.0119 124.712 16.2404 125.397 16.2404ZM139.839 19L147.3 4.23543V4.11239H138.608V1.00129H151.237V4.15633L143.767 19H139.839ZM154.05 19L161.512 4.23543V4.11239H152.82V1.00129H165.449V4.15633L157.979 19H154.05ZM171.805 19V16.258L178.212 10.3258C178.757 9.79851 179.214 9.32393 179.583 8.90209C179.958 8.48024 180.242 8.06719 180.435 7.66292C180.629 7.25279 180.725 6.81044 180.725 6.33587C180.725 5.80856 180.605 5.35449 180.365 4.97366C180.125 4.58697 179.797 4.29109 179.381 4.08603C178.965 3.8751 178.493 3.76964 177.966 3.76964C177.415 3.76964 176.934 3.88096 176.524 4.1036C176.114 4.32624 175.798 4.64556 175.575 5.06154C175.353 5.47753 175.241 5.97261 175.241 6.54679H171.629C171.629 5.36914 171.896 4.34675 172.429 3.47962C172.962 2.6125 173.709 1.94165 174.67 1.46707C175.631 0.992497 176.738 0.755209 177.992 0.755209C179.281 0.755209 180.403 0.983708 181.358 1.44071C182.319 1.89185 183.066 2.51876 183.599 3.32143C184.132 4.12411 184.399 5.04397 184.399 6.081C184.399 6.76064 184.264 7.43149 183.995 8.09355C183.731 8.75561 183.259 9.49091 182.58 10.2994C181.9 11.1021 180.942 12.0659 179.706 13.1908L177.078 15.7659V15.8889H184.636V19H171.805ZM187.115 19L194.577 4.23543V4.11239H185.885V1.00129H198.514V4.15633L191.044 19H187.115ZM206.403 0.755209C207.328 0.755209 208.219 0.910471 209.074 1.221C209.936 1.53152 210.703 2.0266 211.377 2.70624C212.056 3.38588 212.593 4.28816 212.985 5.41308C213.384 6.53214 213.586 7.90607 213.592 9.53486C213.592 11.064 213.419 12.4292 213.073 13.6303C212.733 14.8255 212.244 15.842 211.605 16.6799C210.967 17.5177 210.196 18.1563 209.294 18.5957C208.392 19.0293 207.384 19.2461 206.271 19.2461C205.07 19.2461 204.009 19.0146 203.089 18.5518C202.169 18.0831 201.428 17.4474 200.866 16.6447C200.309 15.8362 199.972 14.928 199.855 13.9203H203.608C203.754 14.5765 204.062 15.0862 204.531 15.4495C204.999 15.8069 205.579 15.9856 206.271 15.9856C207.443 15.9856 208.333 15.4758 208.942 14.4564C209.552 13.4311 209.859 12.0278 209.865 10.2467H209.742C209.473 10.774 209.109 11.2281 208.652 11.6089C208.195 11.9839 207.671 12.2739 207.079 12.479C206.493 12.684 205.869 12.7866 205.207 12.7866C204.147 12.7866 203.201 12.5376 202.369 12.0396C201.537 11.5415 200.881 10.8561 200.4 9.98307C199.92 9.11008 199.679 8.11406 199.679 6.995C199.674 5.78805 199.952 4.71293 200.514 3.76964C201.077 2.82635 201.862 2.08812 202.87 1.55496C203.883 1.01593 205.061 0.74935 206.403 0.755209ZM206.429 3.74328C205.837 3.74328 205.31 3.88389 204.847 4.16512C204.39 4.44635 204.027 4.82425 203.757 5.29883C203.494 5.7734 203.365 6.30364 203.371 6.88954C203.371 7.48129 203.499 8.01446 203.757 8.48903C204.021 8.95775 204.378 9.33272 204.829 9.61395C205.286 9.88932 205.808 10.027 206.394 10.027C206.833 10.027 207.24 9.94498 207.615 9.78093C207.99 9.61688 208.316 9.39131 208.591 9.10422C208.872 8.81127 209.092 8.47438 209.25 8.09355C209.408 7.71272 209.487 7.30845 209.487 6.88075C209.481 6.31243 209.347 5.79098 209.083 5.31641C208.819 4.84183 208.456 4.461 207.993 4.17391C207.53 3.88682 207.009 3.74328 206.429 3.74328Z" fill="white"/>
</svg>
