<?xml version="1.0" encoding="UTF-8"?>
<svg id="_Слой_1" data-name="Слой 1" xmlns="http://www.w3.org/2000/svg" viewBox="0 0 1000 500">
  <defs>
    <style>
      .cls-1 {
        fill: #0f788b;
        stroke-width: 0px;
      }
    </style>
  </defs>
  <path class="cls-1" d="M499.89,65.43c-.69-.29-1.46-.29-2.15,0l-207.86,57h-.04c-11.71-1.71-24.27-2.55-37.69-2.55-31.96,0-59.15,4.63-81.55,13.87-22.44,9.27-39.66,21.71-51.74,37.26-11.35,14.64-17.96,30.82-19.84,48.52-.2,1.84,1.29,3.44,3.14,3.44h69.84c1.41,0,2.59-1.01,2.89-2.39,2.8-12.83,9.95-22.83,21.46-30.05,12.22-7.63,29.34-11.46,51.34-11.46s37.11,3.1,47.73,9.27c10.58,6.17,15.91,14.89,15.91,26.16,0,10.22-4.56,18.46-13.68,24.78-9.16,6.31-24.85,9.45-47.14,9.45h-49.37c-1.63,0-2.96,1.33-2.96,2.96v46.04c0,1.63,1.33,2.96,2.96,2.96h49.37c17.19,0,30.61,1.35,40.28,4.01,9.67,2.7,16.49,6.53,20.54,11.49,4.01,4.96,6.02,11.2,6.02,18.72,0,12.88-6.09,22.88-18.32,29.99-12.22,7.12-29.99,10.66-53.35,10.66-24.7,0-43.57-3.94-56.6-11.86-12.26-7.47-19.71-18-22.32-31.59-.27-1.41-1.46-2.46-2.9-2.46h-69.86c-1.82,0-3.29,1.55-3.14,3.37,1.62,19.82,8.45,37.13,20.54,52.02,12.73,15.69,30.58,27.92,53.53,36.64,22.95,8.72,49.88,13.1,80.75,13.1s58.6-4.12,80.75-12.3c18.74-6.9,33.63-15.96,44.78-27.12,1.14-1.14,1.1-3.01-.03-4.16-.29-.29-.57-.58-.85-.87-9.01-9.23-16.49-19.7-22.48-31.49-12.08-23.75-18.14-50.94-18.14-81.55,0-1.35,0-2.74.04-4.09,0-.98.04-1.93.07-2.92.88-27.73,6.86-52.51,18.03-74.33,6.53-12.77,14.85-24.08,24.89-33.9,8.47-8.39,18.24-15.65,29.26-21.86,24.01-13.54,53.64-20.36,88.78-20.36,25.8,0,48.53,3.94,68.27,11.68,19.74,7.81,35.76,18.35,48.09,31.64,2.26,2.45,4.34,4.89,6.31,7.44,7.91,10.42,13.11,21.87,15.64,34.33.37,1.81-1.07,3.5-2.92,3.5h-37.27s-28.21,0-28.21,0c-1.14,0-2.14-.67-2.64-1.69-4.13-8.38-10.98-15.4-20.56-21.05-10.18-6.02-25.1-9.05-44.7-9.05-20.91,0-38.17,3.87-51.74,11.68-13.54,7.77-23.54,18.86-29.99,33.2-6.42,14.38-9.67,32.04-9.67,52.98,0,1.53.07,3.07.11,4.56,1.53-1.64,3.14-3.21,4.74-4.78,13.39-13.03,29.23-23.35,47.51-31.02,18.24-7.66,38.9-11.49,62-11.49s44.81,3.87,62.54,11.57c.58.26,1.17.47,1.71.77,18.1,8.17,32.07,19.63,41.89,34.41,9.78,14.74,14.67,31.82,14.67,51.12,0,20.4-5.62,38.53-16.93,54.37-.4.56-.8,1.13-1.22,1.69.11,1.4.19,2.47.3,3.87,10.1,9.92,21.82,18.46,35.15,25.46,24.96,13.14,54.48,19.7,88.6,19.7s63.2-6.57,88.16-19.7c24.96-13.17,44.33-31.56,57.98-55.17,13.72-23.65,20.54-51.16,20.54-82.58s-6.82-59.26-20.54-82.72c-2.26-3.88-4.68-7.62-7.25-11.22-.69-.97-.72-2.22-.1-3.24,5.2-8.52,8.22-18.53,8.22-29.22,0-30.91-25.14-56.05-56.01-56.05-20.29,0-38.1,10.85-47.94,27.06-.64,1.05-1.82,1.61-3.03,1.39-12.56-2.3-25.94-3.45-40.04-3.45-20,0-31.5.54-48.36,5.1l-194.2-59.51ZM808.76,130.17c10.51-12.53,30.38-16.97,48.91-2.46.28.22.53.49.73.79,8.18,12.38,8.95,24.52,5.06,34.33-7.32,18.22-30.74,28.31-52.55,12.43-.24-.18-.47-.39-.66-.62-12.83-15.78-10.88-33.34-1.49-44.46ZM809.49,347.79c-15.98,16.64-38.31,24.96-67.03,24.96s-51.16-8.32-67.25-24.96c-1.72-1.75-3.32-3.58-4.78-5.51-12.95-16.17-19.38-37.84-19.38-64.99s6.42-48.79,19.38-64.95c1.46-1.9,3.06-3.76,4.78-5.51,16.09-16.64,38.5-24.96,67.25-24.96s51.05,8.32,67.03,24.96c15.98,16.64,23.97,40.17,23.97,70.46s-7.99,53.86-23.97,70.5Z"/>
  <path class="cls-1" d="M532.68,294.41c-9.12-3.61-20.84-5.44-35.03-5.44-18.54,0-36.2,4.27-52.95,12.7-12,6.05-23.01,13.87-33.02,23.4-.88.84-1.17,2.16-.7,3.28.36.86.73,1.71,1.11,2.54,7.12,15.25,17.62,26.89,31.6,34.81,13.98,7.92,31.02,11.86,51.16,11.86,14.23,0,26.24-1.93,36.05-5.8,9.78-3.9,17.15-9.34,22.11-16.35,5-6.97,7.48-14.74,7.48-23.35s-2.37-16.09-7.08-22.55c-4.71-6.42-11.6-11.46-20.73-15.11Z"/>
</svg>